G04*
G04 #@! TF.GenerationSoftware,Altium Limited,Altium Designer,18.1.3 (115)*
G04*
G04 Layer_Color=32896*
%FSLAX25Y25*%
%MOIN*%
G70*
G01*
G75*
%ADD10C,0.00400*%
%ADD11C,0.01200*%
%ADD13C,0.01000*%
%ADD15C,0.00800*%
%ADD18C,0.00787*%
%ADD20C,0.00394*%
%ADD140C,0.00700*%
%ADD141C,0.00512*%
D10*
X109500Y150100D02*
G03*
X109000Y149600I0J-500D01*
G01*
Y140600D02*
G03*
X109500Y140100I500J0D01*
G01*
X113000Y149600D02*
G03*
X112500Y150100I-500J0D01*
G01*
Y140100D02*
G03*
X113000Y140600I0J500D01*
G01*
X99000Y25500D02*
G03*
X99500Y26000I0J500D01*
G01*
Y35000D02*
G03*
X99000Y35500I-500J0D01*
G01*
X95500Y26000D02*
G03*
X96000Y25500I500J0D01*
G01*
Y35500D02*
G03*
X95500Y35000I0J-500D01*
G01*
X109500Y150100D02*
X112500D01*
X109500Y140100D02*
X112500D01*
X109000Y146600D02*
Y149600D01*
Y140600D02*
Y143600D01*
X113000Y140600D02*
Y143600D01*
Y146600D02*
Y149600D01*
X96000Y25500D02*
X99000D01*
X96000Y35500D02*
X99000D01*
X99500Y26000D02*
Y29000D01*
Y32000D02*
Y35000D01*
X95500Y32000D02*
Y35000D01*
Y26000D02*
Y29000D01*
D11*
X99500Y45000D02*
G03*
X102500Y48000I0J3000D01*
G01*
Y52000D02*
G03*
X99500Y55000I-3000J0D01*
G01*
X82000D02*
G03*
X79000Y52000I0J-3000D01*
G01*
Y48000D02*
G03*
X82000Y45000I3000J0D01*
G01*
X94500Y142000D02*
G03*
X97500Y145000I0J3000D01*
G01*
Y149000D02*
G03*
X94500Y152000I-3000J0D01*
G01*
X77000D02*
G03*
X74000Y149000I0J-3000D01*
G01*
Y145000D02*
G03*
X77000Y142000I3000J0D01*
G01*
X52500Y141000D02*
G03*
X55500Y144000I0J3000D01*
G01*
Y148000D02*
G03*
X52500Y151000I-3000J0D01*
G01*
X35000D02*
G03*
X32000Y148000I0J-3000D01*
G01*
Y144000D02*
G03*
X35000Y141000I3000J0D01*
G01*
X53000Y45000D02*
G03*
X56000Y48000I0J3000D01*
G01*
Y52000D02*
G03*
X53000Y55000I-3000J0D01*
G01*
X35500D02*
G03*
X32500Y52000I0J-3000D01*
G01*
Y48000D02*
G03*
X35500Y45000I3000J0D01*
G01*
X95000D02*
X99500D01*
X95000D02*
X99500D01*
X95000Y55000D02*
X99500D01*
X82000D02*
X86500D01*
X82000Y45000D02*
X86500D01*
X79000Y48000D02*
Y52000D01*
X102500Y48000D02*
Y52000D01*
X90000Y142000D02*
X94500D01*
X90000D02*
X94500D01*
X90000Y152000D02*
X94500D01*
X77000D02*
X81500D01*
X77000Y142000D02*
X81500D01*
X74000Y145000D02*
Y149000D01*
X97500Y145000D02*
Y149000D01*
X48000Y141000D02*
X52500D01*
X48000D02*
X52500D01*
X48000Y151000D02*
X52500D01*
X35000D02*
X39500D01*
X35000Y141000D02*
X39500D01*
X32000Y144000D02*
Y148000D01*
X55500Y144000D02*
Y148000D01*
X48500Y45000D02*
X53000D01*
X48500D02*
X53000D01*
X48500Y55000D02*
X53000D01*
X35500D02*
X40000D01*
X35500Y45000D02*
X40000D01*
X32500Y48000D02*
Y52000D01*
X56000Y48000D02*
Y52000D01*
D13*
X120000Y51500D02*
G03*
X120000Y56500I0J2500D01*
G01*
X140000Y150500D02*
G03*
X140000Y145500I0J-2500D01*
G01*
X43500Y54500D02*
Y60500D01*
X54700Y54500D02*
Y60500D01*
X43500Y54500D02*
X48000D01*
X43500Y60500D02*
X48000D01*
X50500Y54500D02*
X54700D01*
X50500Y60500D02*
X54700D01*
X106000Y59299D02*
X112000D01*
X106000Y48099D02*
X112000D01*
X106000Y54799D02*
Y59299D01*
X112000Y54799D02*
Y59299D01*
X106000Y48099D02*
Y52299D01*
X112000Y48099D02*
Y52299D01*
X107599Y127200D02*
X113599D01*
X107599Y116000D02*
X113599D01*
X107599Y122700D02*
Y127200D01*
X113599Y122700D02*
Y127200D01*
X107599Y116000D02*
Y120200D01*
X113599Y116000D02*
Y120200D01*
X108000Y127701D02*
X114000D01*
X108000Y138901D02*
X114000D01*
Y127701D02*
Y132201D01*
X108000Y127701D02*
Y132201D01*
X114000Y134701D02*
Y138901D01*
X108000Y134701D02*
Y138901D01*
X101000Y154000D02*
X107000D01*
X101000Y142800D02*
X107000D01*
X101000Y149500D02*
Y154000D01*
X107000Y149500D02*
Y154000D01*
X101000Y142800D02*
Y147000D01*
X107000Y142800D02*
Y147000D01*
X49799Y150000D02*
Y156000D01*
X38599Y150000D02*
Y156000D01*
X45299D02*
X49799D01*
X45299Y150000D02*
X49799D01*
X38599Y156000D02*
X42799D01*
X38599Y150000D02*
X42799D01*
X92201Y24799D02*
Y30799D01*
X81001Y24799D02*
Y30799D01*
X87701D02*
X92201D01*
X87701Y24799D02*
X92201D01*
X81001Y30799D02*
X85201D01*
X81001Y24799D02*
X85201D01*
X80701Y30799D02*
Y36799D01*
X91901Y30799D02*
Y36799D01*
X80701Y30799D02*
X85201D01*
X80701Y36799D02*
X85201D01*
X87701Y30799D02*
X91901D01*
X87701Y36799D02*
X91901D01*
X72000Y25000D02*
X78000D01*
X72000Y36200D02*
X78000D01*
Y25000D02*
Y29500D01*
X72000Y25000D02*
Y29500D01*
X78000Y32000D02*
Y36200D01*
X72000Y32000D02*
Y36200D01*
X177201Y32000D02*
Y38000D01*
X188401Y32000D02*
Y38000D01*
X177201Y32000D02*
X181701D01*
X177201Y38000D02*
X181701D01*
X184201Y32000D02*
X188401D01*
X184201Y38000D02*
X188401D01*
X177000Y40000D02*
Y46000D01*
X188200Y40000D02*
Y46000D01*
X177000Y40000D02*
X181500D01*
X177000Y46000D02*
X181500D01*
X184000Y40000D02*
X188200D01*
X184000Y46000D02*
X188200D01*
X120000Y56500D02*
Y59000D01*
Y49000D02*
Y51500D01*
Y49000D02*
X140000D01*
Y59000D01*
X120000D02*
X140000D01*
Y143000D02*
Y145500D01*
Y150500D02*
Y153000D01*
X120000D02*
X140000D01*
X120000Y143000D02*
Y153000D01*
Y143000D02*
X140000D01*
D15*
X165902Y131500D02*
X171900D01*
Y127501D01*
X165902Y125502D02*
Y121503D01*
Y123503D01*
X171900D01*
X166902Y115505D02*
X165902Y116505D01*
Y118504D01*
X166902Y119504D01*
X170900D01*
X171900Y118504D01*
Y116505D01*
X170900Y115505D01*
X165902Y107508D02*
X171900D01*
Y104509D01*
X170900Y103509D01*
X169901D01*
X168901Y104509D01*
Y107508D01*
Y104509D01*
X167901Y103509D01*
X166902D01*
X165902Y104509D01*
Y107508D01*
Y101510D02*
X171900D01*
Y98511D01*
X170900Y97511D01*
X166902D01*
X165902Y98511D01*
Y101510D01*
Y89514D02*
X169901D01*
X171900Y87514D01*
X169901Y85515D01*
X165902D01*
X171900Y83516D02*
Y81516D01*
Y82516D01*
X165902D01*
X166902Y83516D01*
X171900Y78517D02*
X170900D01*
Y77517D01*
X171900D01*
Y78517D01*
X166902Y73519D02*
X165902Y72519D01*
Y70520D01*
X166902Y69520D01*
X170900D01*
X171900Y70520D01*
Y72519D01*
X170900Y73519D01*
X166902D01*
X132500Y105000D02*
X128501D01*
Y103001D01*
X129168Y102334D01*
X130501D01*
X131167Y103001D01*
Y105000D01*
Y103667D02*
X132500Y102334D01*
Y98335D02*
Y101001D01*
X129834Y98335D01*
X129168D01*
X128501Y99002D01*
Y100335D01*
X129168Y101001D01*
X131834Y97003D02*
X132500Y96336D01*
Y95003D01*
X131834Y94337D01*
X129168D01*
X128501Y95003D01*
Y96336D01*
X129168Y97003D01*
X129834D01*
X130501Y96336D01*
Y94337D01*
X111500Y71000D02*
X107501D01*
Y69001D01*
X108168Y68334D01*
X109501D01*
X110167Y69001D01*
Y71000D01*
Y69667D02*
X111500Y68334D01*
Y64336D02*
Y67001D01*
X108834Y64336D01*
X108168D01*
X107501Y65002D01*
Y66335D01*
X108168Y67001D01*
X107501Y63003D02*
Y60337D01*
X108168D01*
X110834Y63003D01*
X111500D01*
X103000Y155500D02*
X106999D01*
Y157499D01*
X106332Y158166D01*
X104999D01*
X104333Y157499D01*
Y155500D01*
Y156833D02*
X103000Y158166D01*
Y162164D02*
Y159499D01*
X105666Y162164D01*
X106332D01*
X106999Y161498D01*
Y160165D01*
X106332Y159499D01*
X106999Y166163D02*
X106332Y164830D01*
X104999Y163497D01*
X103666D01*
X103000Y164164D01*
Y165497D01*
X103666Y166163D01*
X104333D01*
X104999Y165497D01*
Y163497D01*
X69000Y51300D02*
Y55299D01*
X67001D01*
X66334Y54632D01*
Y53299D01*
X67001Y52633D01*
X69000D01*
X67667D02*
X66334Y51300D01*
X62335D02*
X65001D01*
X62335Y53966D01*
Y54632D01*
X63002Y55299D01*
X64335D01*
X65001Y54632D01*
X58337Y55299D02*
X61003D01*
Y53299D01*
X59670Y53966D01*
X59003D01*
X58337Y53299D01*
Y51966D01*
X59003Y51300D01*
X60336D01*
X61003Y51966D01*
X35000Y153000D02*
Y156999D01*
X33001D01*
X32334Y156332D01*
Y154999D01*
X33001Y154333D01*
X35000D01*
X33667D02*
X32334Y153000D01*
X28335D02*
X31001D01*
X28335Y155666D01*
Y156332D01*
X29002Y156999D01*
X30335D01*
X31001Y156332D01*
X25003Y153000D02*
Y156999D01*
X27003Y154999D01*
X24337D01*
X118099Y124901D02*
X114101D01*
Y122901D01*
X114767Y122235D01*
X116100D01*
X116766Y122901D01*
Y124901D01*
Y123568D02*
X118099Y122235D01*
Y120902D02*
Y119569D01*
Y120236D01*
X114101D01*
X114767Y120902D01*
Y117570D02*
X114101Y116903D01*
Y115570D01*
X114767Y114904D01*
X115433D01*
X116100Y115570D01*
X116766Y114904D01*
X117433D01*
X118099Y115570D01*
Y116903D01*
X117433Y117570D01*
X116766D01*
X116100Y116903D01*
X115433Y117570D01*
X114767D01*
X116100Y116903D02*
Y115570D01*
X119500Y138500D02*
X115501D01*
Y136501D01*
X116168Y135834D01*
X117501D01*
X118167Y136501D01*
Y138500D01*
Y137167D02*
X119500Y135834D01*
Y134501D02*
Y133168D01*
Y133835D01*
X115501D01*
X116168Y134501D01*
X115501Y131169D02*
Y128503D01*
X116168D01*
X118833Y131169D01*
X119500D01*
X76300Y23400D02*
X72301D01*
Y21401D01*
X72968Y20734D01*
X74301D01*
X74967Y21401D01*
Y23400D01*
Y22067D02*
X76300Y20734D01*
Y19401D02*
Y18068D01*
Y18735D01*
X72301D01*
X72968Y19401D01*
X72301Y13403D02*
X72968Y14736D01*
X74301Y16069D01*
X75634D01*
X76300Y15403D01*
Y14070D01*
X75634Y13403D01*
X74967D01*
X74301Y14070D01*
Y16069D01*
X90700Y39300D02*
Y43299D01*
X88701D01*
X88034Y42632D01*
Y41299D01*
X88701Y40633D01*
X90700D01*
X89367D02*
X88034Y39300D01*
X86701D02*
X85368D01*
X86035D01*
Y43299D01*
X86701Y42632D01*
X81370Y39300D02*
Y43299D01*
X83369Y41299D01*
X80703D01*
X91200Y19400D02*
Y23399D01*
X89201D01*
X88534Y22732D01*
Y21399D01*
X89201Y20733D01*
X91200D01*
X89867D02*
X88534Y19400D01*
X87201D02*
X85868D01*
X86535D01*
Y23399D01*
X87201Y22732D01*
X83869D02*
X83203Y23399D01*
X81870D01*
X81203Y22732D01*
Y22066D01*
X81870Y21399D01*
X82536D01*
X81870D01*
X81203Y20733D01*
Y20066D01*
X81870Y19400D01*
X83203D01*
X83869Y20066D01*
X187500Y53500D02*
Y57499D01*
X185501D01*
X184834Y56832D01*
Y55499D01*
X185501Y54833D01*
X187500D01*
X186167D02*
X184834Y53500D01*
X183501D02*
X182168D01*
X182835D01*
Y57499D01*
X183501Y56832D01*
X180169Y53500D02*
X178836D01*
X179503D01*
Y57499D01*
X180169Y56832D01*
X187500Y48000D02*
Y51999D01*
X185501D01*
X184834Y51332D01*
Y49999D01*
X185501Y49333D01*
X187500D01*
X186167D02*
X184834Y48000D01*
X183501D02*
X182168D01*
X182835D01*
Y51999D01*
X183501Y51332D01*
X180169D02*
X179503Y51999D01*
X178170D01*
X177503Y51332D01*
Y48666D01*
X178170Y48000D01*
X179503D01*
X180169Y48666D01*
Y51332D01*
X82500Y157999D02*
Y154000D01*
X80501D01*
X79834Y154666D01*
Y157332D01*
X80501Y157999D01*
X82500D01*
X78501Y154000D02*
X77168D01*
X77835D01*
Y157999D01*
X78501Y157332D01*
X75169Y154000D02*
X73836D01*
X74503D01*
Y157999D01*
X75169Y157332D01*
X109900Y43399D02*
Y39400D01*
X107901D01*
X107234Y40066D01*
Y42732D01*
X107901Y43399D01*
X109900D01*
X105901Y39400D02*
X104568D01*
X105235D01*
Y43399D01*
X105901Y42732D01*
X102569D02*
X101903Y43399D01*
X100570D01*
X99903Y42732D01*
Y40066D01*
X100570Y39400D01*
X101903D01*
X102569Y40066D01*
Y42732D01*
X65100Y48499D02*
Y44500D01*
X63101D01*
X62434Y45166D01*
Y47832D01*
X63101Y48499D01*
X65100D01*
X61101Y45166D02*
X60435Y44500D01*
X59102D01*
X58435Y45166D01*
Y47832D01*
X59102Y48499D01*
X60435D01*
X61101Y47832D01*
Y47166D01*
X60435Y46499D01*
X58435D01*
X29500Y148499D02*
Y144500D01*
X27501D01*
X26834Y145167D01*
Y147832D01*
X27501Y148499D01*
X29500D01*
X25501Y147832D02*
X24835Y148499D01*
X23502D01*
X22836Y147832D01*
Y147166D01*
X23502Y146499D01*
X22836Y145833D01*
Y145167D01*
X23502Y144500D01*
X24835D01*
X25501Y145167D01*
Y145833D01*
X24835Y146499D01*
X25501Y147166D01*
Y147832D01*
X24835Y146499D02*
X23502D01*
X147500Y69999D02*
Y66000D01*
X145501D01*
X144834Y66666D01*
Y69332D01*
X145501Y69999D01*
X147500D01*
X143501D02*
X140835D01*
Y69332D01*
X143501Y66666D01*
Y66000D01*
X150300Y145699D02*
Y141700D01*
X148301D01*
X147634Y142367D01*
Y145032D01*
X148301Y145699D01*
X150300D01*
X143635D02*
X144968Y145032D01*
X146301Y143699D01*
Y142367D01*
X145635Y141700D01*
X144302D01*
X143635Y142367D01*
Y143033D01*
X144302Y143699D01*
X146301D01*
X131334Y120332D02*
X132001Y120999D01*
X133334D01*
X134000Y120332D01*
Y117666D01*
X133334Y117000D01*
X132001D01*
X131334Y117666D01*
X130001Y120332D02*
X129335Y120999D01*
X128002D01*
X127336Y120332D01*
Y119666D01*
X128002Y118999D01*
X128668D01*
X128002D01*
X127336Y118333D01*
Y117666D01*
X128002Y117000D01*
X129335D01*
X130001Y117666D01*
X124003Y117000D02*
Y120999D01*
X126003Y118999D01*
X123337D01*
X131834Y85832D02*
X132501Y86499D01*
X133834D01*
X134500Y85832D01*
Y83166D01*
X133834Y82500D01*
X132501D01*
X131834Y83166D01*
X130501Y85832D02*
X129835Y86499D01*
X128502D01*
X127836Y85832D01*
Y85166D01*
X128502Y84499D01*
X129168D01*
X128502D01*
X127836Y83833D01*
Y83166D01*
X128502Y82500D01*
X129835D01*
X130501Y83166D01*
X126503Y85832D02*
X125836Y86499D01*
X124503D01*
X123837Y85832D01*
Y85166D01*
X124503Y84499D01*
X125170D01*
X124503D01*
X123837Y83833D01*
Y83166D01*
X124503Y82500D01*
X125836D01*
X126503Y83166D01*
X130834Y24832D02*
X131501Y25499D01*
X132834D01*
X133500Y24832D01*
Y22166D01*
X132834Y21500D01*
X131501D01*
X130834Y22166D01*
X129501Y24832D02*
X128835Y25499D01*
X127502D01*
X126836Y24832D01*
Y24166D01*
X127502Y23499D01*
X128168D01*
X127502D01*
X126836Y22833D01*
Y22166D01*
X127502Y21500D01*
X128835D01*
X129501Y22166D01*
X122837Y21500D02*
X125503D01*
X122837Y24166D01*
Y24832D01*
X123503Y25499D01*
X124836D01*
X125503Y24832D01*
X130334Y181832D02*
X131001Y182499D01*
X132334D01*
X133000Y181832D01*
Y179166D01*
X132334Y178500D01*
X131001D01*
X130334Y179166D01*
X129001Y181832D02*
X128335Y182499D01*
X127002D01*
X126336Y181832D01*
Y181166D01*
X127002Y180499D01*
X127668D01*
X127002D01*
X126336Y179833D01*
Y179166D01*
X127002Y178500D01*
X128335D01*
X129001Y179166D01*
X125003Y178500D02*
X123670D01*
X124336D01*
Y182499D01*
X125003Y181832D01*
X115268Y147834D02*
X114601Y148501D01*
Y149834D01*
X115268Y150500D01*
X117933D01*
X118600Y149834D01*
Y148501D01*
X117933Y147834D01*
X118600Y143835D02*
Y146501D01*
X115934Y143835D01*
X115268D01*
X114601Y144502D01*
Y145835D01*
X115268Y146501D01*
X114601Y139837D02*
Y142503D01*
X116601D01*
X115934Y141170D01*
Y140503D01*
X116601Y139837D01*
X117933D01*
X118600Y140503D01*
Y141836D01*
X117933Y142503D01*
X101168Y33834D02*
X100501Y34501D01*
Y35834D01*
X101168Y36500D01*
X103833D01*
X104500Y35834D01*
Y34501D01*
X103833Y33834D01*
X104500Y29836D02*
Y32501D01*
X101834Y29836D01*
X101168D01*
X100501Y30502D01*
Y31835D01*
X101168Y32501D01*
X104500Y28503D02*
Y27170D01*
Y27836D01*
X100501D01*
X101168Y28503D01*
X196850Y-100D02*
Y196750D01*
X0Y-100D02*
X196850Y-100D01*
X0D02*
Y196750D01*
Y196750D02*
X196850Y196750D01*
D18*
X106572Y92626D02*
X140928D01*
X106572D02*
Y108374D01*
X140928D01*
Y92626D02*
Y108374D01*
X118000Y71500D02*
Y81500D01*
X141500Y71500D02*
Y81500D01*
X118000D02*
X125500D01*
X118000Y71500D02*
X125500D01*
X134000D02*
X141500D01*
X134000Y81500D02*
X141500D01*
X141000Y167000D02*
Y177000D01*
X117500Y167000D02*
Y177000D01*
X133500Y167000D02*
X141000D01*
X133500Y177000D02*
X141000D01*
X117500D02*
X125000D01*
X117500Y167000D02*
X125000D01*
X141500Y121000D02*
Y131000D01*
X118000Y121000D02*
Y131000D01*
X134000Y121000D02*
X141500D01*
X134000Y131000D02*
X141500D01*
X118000D02*
X125500D01*
X118000Y121000D02*
X125500D01*
X117500Y25500D02*
Y35500D01*
X141000Y25500D02*
Y35500D01*
X117500D02*
X125000D01*
X117500Y25500D02*
X125000D01*
X133500D02*
X141000D01*
X133500Y35500D02*
X141000D01*
D20*
X73400Y147313D02*
Y148887D01*
X72613Y148100D02*
X74187D01*
D140*
X141772Y64004D02*
X148268D01*
X141772Y48295D02*
Y64004D01*
X148268Y48295D02*
Y64004D01*
X141772Y48295D02*
X148268D01*
X144260Y138509D02*
X150756D01*
X144260Y122800D02*
Y138509D01*
X150756Y122800D02*
Y138509D01*
X144260Y122800D02*
X150756D01*
D141*
X117393Y100239D02*
X119952D01*
Y102110D02*
X127826D01*
X119952Y98369D02*
X127826D01*
Y102110D01*
X119952Y98369D02*
Y102110D01*
X127826Y100239D02*
X130385D01*
M02*
