G04*
G04 #@! TF.GenerationSoftware,Altium Limited,Altium Designer,18.1.3 (115)*
G04*
G04 Layer_Color=65535*
%FSLAX25Y25*%
%MOIN*%
G70*
G01*
G75*
%ADD10C,0.00400*%
%ADD11C,0.01200*%
%ADD12C,0.00600*%
%ADD13C,0.01000*%
%ADD14C,0.00984*%
%ADD15C,0.00800*%
%ADD16C,0.02000*%
%ADD17C,0.01968*%
%ADD18C,0.00787*%
%ADD19C,0.01181*%
%ADD20C,0.00394*%
%ADD21C,0.00606*%
D10*
X153300Y132100D02*
G03*
X153800Y131600I500J0D01*
G01*
Y141600D02*
G03*
X153300Y141100I0J-500D01*
G01*
X156800Y131600D02*
G03*
X157300Y132100I0J500D01*
G01*
Y141100D02*
G03*
X156800Y141600I-500J0D01*
G01*
X90700Y77300D02*
G03*
X91200Y76800I500J0D01*
G01*
Y86800D02*
G03*
X90700Y86300I0J-500D01*
G01*
X94200Y76800D02*
G03*
X94700Y77300I0J500D01*
G01*
Y86300D02*
G03*
X94200Y86800I-500J0D01*
G01*
X179500Y55500D02*
G03*
X179000Y55000I0J-500D01*
G01*
X189000D02*
G03*
X188500Y55500I-500J0D01*
G01*
X179000Y52000D02*
G03*
X179500Y51500I500J0D01*
G01*
X188500D02*
G03*
X189000Y52000I0J500D01*
G01*
X161900Y170000D02*
G03*
X162400Y169500I500J0D01*
G01*
Y179500D02*
G03*
X161900Y179000I0J-500D01*
G01*
X165400Y169500D02*
G03*
X165900Y170000I0J500D01*
G01*
Y179000D02*
G03*
X165400Y179500I-500J0D01*
G01*
X104500Y77301D02*
G03*
X105000Y76801I500J0D01*
G01*
Y86801D02*
G03*
X104500Y86301I0J-500D01*
G01*
X108000Y76801D02*
G03*
X108500Y77301I0J500D01*
G01*
Y86301D02*
G03*
X108000Y86801I-500J0D01*
G01*
X128700Y78900D02*
G03*
X128200Y79400I-500J0D01*
G01*
Y69400D02*
G03*
X128700Y69900I0J500D01*
G01*
X125200Y79400D02*
G03*
X124700Y78900I0J-500D01*
G01*
Y69900D02*
G03*
X125200Y69400I500J0D01*
G01*
X122600Y60500D02*
G03*
X123100Y61000I0J500D01*
G01*
X113100D02*
G03*
X113600Y60500I500J0D01*
G01*
X123100Y64000D02*
G03*
X122600Y64500I-500J0D01*
G01*
X113600D02*
G03*
X113100Y64000I0J-500D01*
G01*
X141500Y185000D02*
G03*
X141000Y184500I0J-500D01*
G01*
X151000D02*
G03*
X150500Y185000I-500J0D01*
G01*
X141000Y181500D02*
G03*
X141500Y181000I500J0D01*
G01*
X150500D02*
G03*
X151000Y181500I0J500D01*
G01*
X192500Y124900D02*
G03*
X193000Y125400I0J500D01*
G01*
X183000D02*
G03*
X183500Y124900I500J0D01*
G01*
X193000Y128400D02*
G03*
X192500Y128900I-500J0D01*
G01*
X183500D02*
G03*
X183000Y128400I0J-500D01*
G01*
X179500Y66500D02*
G03*
X179000Y66000I0J-500D01*
G01*
X189000D02*
G03*
X188500Y66500I-500J0D01*
G01*
X179000Y63000D02*
G03*
X179500Y62500I500J0D01*
G01*
X188500D02*
G03*
X189000Y63000I0J500D01*
G01*
X118500Y109000D02*
G03*
X118000Y108500I0J-500D01*
G01*
X128000D02*
G03*
X127500Y109000I-500J0D01*
G01*
X118000Y105500D02*
G03*
X118500Y105000I500J0D01*
G01*
X127500D02*
G03*
X128000Y105500I0J500D01*
G01*
X175000Y41500D02*
G03*
X174500Y42000I-500J0D01*
G01*
Y32000D02*
G03*
X175000Y32500I0J500D01*
G01*
X171500Y42000D02*
G03*
X171000Y41500I0J-500D01*
G01*
Y32500D02*
G03*
X171500Y32000I500J0D01*
G01*
X165000Y32500D02*
G03*
X165500Y32000I500J0D01*
G01*
Y42000D02*
G03*
X165000Y41500I0J-500D01*
G01*
X168500Y32000D02*
G03*
X169000Y32500I0J500D01*
G01*
Y41500D02*
G03*
X168500Y42000I-500J0D01*
G01*
X111000Y165000D02*
G03*
X110500Y164500I0J-500D01*
G01*
X120500D02*
G03*
X120000Y165000I-500J0D01*
G01*
X110500Y161500D02*
G03*
X111000Y161000I500J0D01*
G01*
X120000D02*
G03*
X120500Y161500I0J500D01*
G01*
X112500Y46500D02*
G03*
X113000Y46000I500J0D01*
G01*
Y56000D02*
G03*
X112500Y55500I0J-500D01*
G01*
X116000Y46000D02*
G03*
X116500Y46500I0J500D01*
G01*
Y55500D02*
G03*
X116000Y56000I-500J0D01*
G01*
X150900Y175500D02*
Y179500D01*
X147500Y175500D02*
X150900D01*
X141100D02*
X144500D01*
X147500Y179500D02*
X150900D01*
X141100Y179600D02*
X144400D01*
X141100Y175500D02*
Y179600D01*
X153800Y131600D02*
X156800D01*
X153800Y141600D02*
X156800D01*
X153300Y132100D02*
Y135100D01*
Y138100D02*
Y141100D01*
X157300Y138100D02*
Y141100D01*
Y132100D02*
Y135100D01*
X91200Y76800D02*
X94200D01*
X91200Y86800D02*
X94200D01*
X90700Y77300D02*
Y80300D01*
Y83300D02*
Y86300D01*
X94700Y83300D02*
Y86300D01*
Y77300D02*
Y80300D01*
X182500Y44500D02*
X183000Y44000D01*
Y43500D02*
Y44000D01*
X182000Y43500D02*
X184000D01*
X182000Y41500D02*
Y42500D01*
X184000D01*
Y41500D02*
Y42500D01*
X182000Y41500D02*
X184000D01*
X182000Y40500D02*
X184000D01*
X183000Y40000D02*
Y40500D01*
Y40000D02*
X183500Y39500D01*
X185500Y55500D02*
X188500D01*
X179500D02*
X182500D01*
X179500Y51500D02*
X182500D01*
X185500D02*
X188500D01*
X179000Y52000D02*
Y55000D01*
X189000Y52000D02*
Y55000D01*
X162400Y169500D02*
X165400D01*
X162400Y179500D02*
X165400D01*
X161900Y170000D02*
Y173000D01*
Y176000D02*
Y179000D01*
X165900Y176000D02*
Y179000D01*
Y170000D02*
Y173000D01*
X104500Y83301D02*
Y86301D01*
Y77301D02*
Y80301D01*
X108500Y77301D02*
Y80301D01*
Y83301D02*
Y86301D01*
X105000Y76801D02*
X108000D01*
X105000Y86801D02*
X108000D01*
X128700Y69900D02*
Y72900D01*
Y75900D02*
Y78900D01*
X124700Y75900D02*
Y78900D01*
Y69900D02*
Y72900D01*
X125200Y79400D02*
X128200D01*
X125200Y69400D02*
X128200D01*
X113600Y60500D02*
X116600D01*
X119600D02*
X122600D01*
X119600Y64500D02*
X122600D01*
X113600D02*
X116600D01*
X123100Y61000D02*
Y64000D01*
X113100Y61000D02*
Y64000D01*
X147500Y185000D02*
X150500D01*
X141500D02*
X144500D01*
X141500Y181000D02*
X144500D01*
X147500D02*
X150500D01*
X141000Y181500D02*
Y184500D01*
X151000Y181500D02*
Y184500D01*
X183500Y124900D02*
X186500D01*
X189500D02*
X192500D01*
X189500Y128900D02*
X192500D01*
X183500D02*
X186500D01*
X193000Y125400D02*
Y128400D01*
X183000Y125400D02*
Y128400D01*
X185500Y66500D02*
X188500D01*
X179500D02*
X182500D01*
X179500Y62500D02*
X182500D01*
X185500D02*
X188500D01*
X179000Y63000D02*
Y66000D01*
X189000Y63000D02*
Y66000D01*
X124500Y109000D02*
X127500D01*
X118500D02*
X121500D01*
X118500Y105000D02*
X121500D01*
X124500D02*
X127500D01*
X118000Y105500D02*
Y108500D01*
X128000Y105500D02*
Y108500D01*
X175000Y32500D02*
Y35500D01*
Y38500D02*
Y41500D01*
X171000Y38500D02*
Y41500D01*
Y32500D02*
Y35500D01*
X171500Y42000D02*
X174500D01*
X171500Y32000D02*
X174500D01*
X165000Y38500D02*
Y41500D01*
Y32500D02*
Y35500D01*
X169000Y32500D02*
Y35500D01*
Y38500D02*
Y41500D01*
X165500Y32000D02*
X168500D01*
X165500Y42000D02*
X168500D01*
X117000Y165000D02*
X120000D01*
X111000D02*
X114000D01*
X111000Y161000D02*
X114000D01*
X117000D02*
X120000D01*
X110500Y161500D02*
Y164500D01*
X120500Y161500D02*
Y164500D01*
X112500Y52500D02*
Y55500D01*
Y46500D02*
Y49500D01*
X116500Y46500D02*
Y49500D01*
Y52500D02*
Y55500D01*
X113000Y46000D02*
X116000D01*
X113000Y56000D02*
X116000D01*
D11*
X85500Y152500D02*
G03*
X82500Y149500I0J-3000D01*
G01*
Y145500D02*
G03*
X85500Y142500I3000J0D01*
G01*
X103000D02*
G03*
X106000Y145500I0J3000D01*
G01*
Y149500D02*
G03*
X103000Y152500I-3000J0D01*
G01*
X139629Y170974D02*
G03*
X136416Y167760I0J-3214D01*
G01*
Y165174D02*
G03*
X139629Y161960I3214J0D01*
G01*
X152216D02*
G03*
X155429Y165174I0J3214D01*
G01*
Y167760D02*
G03*
X152216Y170974I-3214J0D01*
G01*
X111430Y120260D02*
G03*
X108215Y123474I-3214J0D01*
G01*
Y114460D02*
G03*
X111430Y117674I0J3214D01*
G01*
X92415D02*
G03*
X95630Y114460I3214J0D01*
G01*
Y123474D02*
G03*
X92415Y120260I0J-3214D01*
G01*
X49000Y86700D02*
X49000Y97400D01*
X72500Y86700D02*
Y97400D01*
X49000Y86700D02*
X56500Y86700D01*
X49000Y97400D02*
X56500D01*
X65000D02*
X72500D01*
X65000Y86700D02*
X72500D01*
X106000Y145500D02*
Y149500D01*
X82500Y145500D02*
Y149500D01*
X85500Y152500D02*
X90000D01*
X85500Y142500D02*
X90000D01*
X98500D02*
X103000D01*
X98500Y152500D02*
X103000D01*
X98500D02*
X103000D01*
X148316Y161960D02*
X152216D01*
X139629D02*
X143930D01*
X139129Y170960D02*
X143930D01*
X136416Y165274D02*
Y167760D01*
X155429Y165174D02*
Y167660D01*
X147930Y170960D02*
X152229D01*
X64500Y163000D02*
X72000D01*
X64500Y172000D02*
X72000D01*
X53000D02*
X60500D01*
X53000Y163000D02*
X60500D01*
X72000D02*
Y172000D01*
X53000Y163000D02*
Y172000D01*
X103929Y123460D02*
X108229D01*
X111430Y117674D02*
Y120160D01*
X92415Y117774D02*
Y120260D01*
X95130Y123460D02*
X99929D01*
X95630Y114460D02*
X99929D01*
X104315D02*
X108215D01*
X53000Y163000D02*
Y172000D01*
X34000Y163000D02*
Y172000D01*
X45500D02*
X53000D01*
X45500Y163000D02*
X53000D01*
X34000D02*
X41500D01*
X34000Y172000D02*
X41500D01*
X101500Y125500D02*
Y134500D01*
X82500Y125500D02*
Y134500D01*
X94000D02*
X101500D01*
X94000Y125500D02*
X101500D01*
X82500D02*
X90000D01*
X82500Y134500D02*
X90000D01*
D12*
X155500Y160900D02*
G03*
X154500Y161900I-1000J0D01*
G01*
Y144900D02*
G03*
X155500Y145900I0J1000D01*
G01*
X148500D02*
G03*
X149500Y144900I1000J0D01*
G01*
Y161900D02*
G03*
X148500Y160900I0J-1000D01*
G01*
X109500Y103000D02*
G03*
X110500Y104000I0J1000D01*
G01*
X93500D02*
G03*
X94500Y103000I1000J0D01*
G01*
Y110000D02*
G03*
X93500Y109000I0J-1000D01*
G01*
X110500D02*
G03*
X109500Y110000I-1000J0D01*
G01*
X83200Y142000D02*
G03*
X82200Y141000I0J-1000D01*
G01*
X99200D02*
G03*
X98200Y142000I-1000J0D01*
G01*
Y135000D02*
G03*
X99200Y136000I0J1000D01*
G01*
X82200D02*
G03*
X83200Y135000I1000J0D01*
G01*
X149500Y161900D02*
X154500D01*
X149500Y144900D02*
X154500D01*
X148500Y145900D02*
Y150900D01*
X155500Y145900D02*
Y150900D01*
X148500Y155900D02*
Y160900D01*
X155500Y155900D02*
Y160900D01*
X110500Y104000D02*
Y109000D01*
X93500Y104000D02*
Y109000D01*
X94500Y110000D02*
X99500D01*
X94500Y103000D02*
X99500D01*
X104500Y110000D02*
X109500D01*
X104500Y103000D02*
X109500D01*
X82200Y136000D02*
Y141000D01*
X99200Y136000D02*
Y141000D01*
X93200Y135000D02*
X98200D01*
X93200Y142000D02*
X98200D01*
X83200Y135000D02*
X88200D01*
X83200Y142000D02*
X88200D01*
X81330Y-9401D02*
X77332D01*
Y-12400D01*
X79331Y-11400D01*
X80330D01*
X81330Y-12400D01*
Y-14399D01*
X80330Y-15399D01*
X78331D01*
X77332Y-14399D01*
X83330Y-10401D02*
X84329Y-9401D01*
X86329D01*
X87328Y-10401D01*
Y-14399D01*
X86329Y-15399D01*
X84329D01*
X83330Y-14399D01*
Y-10401D01*
X89328Y-15399D02*
Y-14399D01*
X90327D01*
Y-15399D01*
X89328D01*
X94326Y-10401D02*
X95326Y-9401D01*
X97325D01*
X98325Y-10401D01*
Y-14399D01*
X97325Y-15399D01*
X95326D01*
X94326Y-14399D01*
Y-10401D01*
X100324D02*
X101324Y-9401D01*
X103323D01*
X104323Y-10401D01*
Y-14399D01*
X103323Y-15399D01*
X101324D01*
X100324Y-14399D01*
Y-10401D01*
X106322Y-15399D02*
Y-11400D01*
X107322D01*
X108321Y-12400D01*
Y-15399D01*
Y-12400D01*
X109321Y-11400D01*
X110321Y-12400D01*
Y-15399D01*
X112320D02*
Y-11400D01*
X113320D01*
X114320Y-12400D01*
Y-15399D01*
Y-12400D01*
X115319Y-11400D01*
X116319Y-12400D01*
Y-15399D01*
X-39899Y81230D02*
Y77232D01*
X-36900D01*
X-37900Y79231D01*
Y80230D01*
X-36900Y81230D01*
X-34901D01*
X-33901Y80230D01*
Y78231D01*
X-34901Y77232D01*
X-38899Y83230D02*
X-39899Y84229D01*
Y86229D01*
X-38899Y87228D01*
X-34901D01*
X-33901Y86229D01*
Y84229D01*
X-34901Y83230D01*
X-38899D01*
X-33901Y89228D02*
X-34901D01*
Y90227D01*
X-33901D01*
Y89228D01*
X-38899Y94226D02*
X-39899Y95226D01*
Y97225D01*
X-38899Y98225D01*
X-34901D01*
X-33901Y97225D01*
Y95226D01*
X-34901Y94226D01*
X-38899D01*
Y100224D02*
X-39899Y101224D01*
Y103223D01*
X-38899Y104223D01*
X-34901D01*
X-33901Y103223D01*
Y101224D01*
X-34901Y100224D01*
X-38899D01*
X-33901Y106222D02*
X-37900D01*
Y107222D01*
X-36900Y108221D01*
X-33901D01*
X-36900D01*
X-37900Y109221D01*
X-36900Y110221D01*
X-33901D01*
Y112220D02*
X-37900D01*
Y113220D01*
X-36900Y114219D01*
X-33901D01*
X-36900D01*
X-37900Y115219D01*
X-36900Y116219D01*
X-33901D01*
D13*
X30200Y64935D02*
G03*
X30200Y64935I-1000J0D01*
G01*
X77000Y114500D02*
G03*
X81000Y114500I2000J0D01*
G01*
X73000D02*
G03*
X77000Y114500I2000J0D01*
G01*
X81000D02*
G03*
X85000Y114500I2000J0D01*
G01*
X123000Y151000D02*
G03*
X123000Y155000I0J2000D01*
G01*
Y143000D02*
G03*
X123000Y147000I0J2000D01*
G01*
D02*
G03*
X123000Y151000I0J2000D01*
G01*
X192079Y32087D02*
G03*
X192079Y32087I-492J0D01*
G01*
X58706Y123014D02*
G03*
X58706Y123014I-1000J0D01*
G01*
X146500Y101500D02*
G03*
X141500Y101500I-2500J0D01*
G01*
X98000Y41500D02*
G03*
X93000Y41500I-2500J0D01*
G01*
X43319Y85371D02*
X74900D01*
X39483Y81535D02*
X43319Y85371D01*
X39483Y74700D02*
Y81535D01*
Y56116D02*
Y63700D01*
Y56116D02*
X43300Y52300D01*
X74900D01*
Y63700D01*
Y74700D02*
Y85371D01*
X91000Y110500D02*
Y116500D01*
X67000Y110500D02*
Y116500D01*
Y119500D02*
Y126500D01*
X91000D01*
Y119500D02*
Y126500D01*
Y100500D02*
Y107500D01*
X67000Y100500D02*
X91000D01*
X67000D02*
Y107500D01*
X85000Y114500D02*
X88000D01*
X70000D02*
X73000D01*
X129000Y159000D02*
X135500D01*
Y139000D02*
Y159000D01*
X129000Y139000D02*
X135500D01*
X112500D02*
X119000D01*
X112500D02*
Y159000D01*
X119000D01*
X123000Y155000D02*
Y157000D01*
Y141000D02*
Y143000D01*
X122000Y139000D02*
X126000D01*
X122000Y159000D02*
X126000D01*
X117300Y118500D02*
X121500D01*
X117300Y112500D02*
X121500D01*
X124000Y118500D02*
X128500D01*
X124000Y112500D02*
X128500D01*
X117300D02*
Y118500D01*
X128500Y112500D02*
Y118500D01*
X-1349Y118762D02*
X66565D01*
X-1349Y164038D02*
X66565D01*
X140575Y70887D02*
X162575D01*
X140575Y48887D02*
Y70887D01*
Y48887D02*
X162575D01*
Y70887D01*
X146500Y101500D02*
X149000D01*
X139000D02*
X141500D01*
X139000D02*
Y121500D01*
X149000D01*
Y101500D02*
Y121500D01*
X92700Y179100D02*
X96900D01*
X92700Y185100D02*
X96900D01*
X85700Y179100D02*
X90200D01*
X85700Y185100D02*
X90200D01*
X96900Y179100D02*
Y185100D01*
X85700Y179100D02*
Y185100D01*
X77500Y179100D02*
X81700D01*
X77500Y185100D02*
X81700D01*
X70500Y179100D02*
X75000D01*
X70500Y185100D02*
X75000D01*
X81700Y179100D02*
Y185100D01*
X70500Y179100D02*
Y185100D01*
X123201Y160000D02*
Y166000D01*
X134401Y160000D02*
Y166000D01*
X123201D02*
X127701D01*
X123201Y160000D02*
X127701D01*
X130201Y166000D02*
X134401D01*
X130201Y160000D02*
X134401D01*
X105500Y172099D02*
Y176299D01*
X111500Y172099D02*
Y176299D01*
X105500Y178799D02*
Y183299D01*
X111500Y178799D02*
Y183299D01*
X105500Y172099D02*
X111500D01*
X105500Y183299D02*
X111500D01*
X96701Y30300D02*
X100901D01*
X96701Y36300D02*
X100901D01*
X89701Y30300D02*
X94201D01*
X89701Y36300D02*
X94201D01*
X100901Y30300D02*
Y36300D01*
X89701Y30300D02*
Y36300D01*
X133500Y169099D02*
Y173299D01*
X139500Y169099D02*
Y173299D01*
X133500Y175799D02*
Y180299D01*
X139500Y175799D02*
Y180299D01*
X133500Y169099D02*
X139500D01*
X133500Y180299D02*
X139500D01*
X97201Y66000D02*
X101401D01*
X97201Y72000D02*
X101401D01*
X90201Y66000D02*
X94701D01*
X90201Y72000D02*
X94701D01*
X101401Y66000D02*
Y72000D01*
X90201Y66000D02*
Y72000D01*
X100500Y41500D02*
Y61500D01*
X90500D02*
X100500D01*
X90500Y41500D02*
Y61500D01*
Y41500D02*
X93000D01*
X98000D02*
X100500D01*
X112599Y71500D02*
X116799D01*
X112599Y65500D02*
X116799D01*
X119299Y71500D02*
X123799D01*
X119299Y65500D02*
X123799D01*
X112599D02*
Y71500D01*
X123799Y65500D02*
Y71500D01*
X102000Y82301D02*
Y86501D01*
X96000Y82301D02*
Y86501D01*
X102000Y75301D02*
Y79801D01*
X96000Y75301D02*
Y79801D01*
Y86501D02*
X102000D01*
X96000Y75301D02*
X102000D01*
X87500Y82301D02*
Y86501D01*
X81500Y82301D02*
Y86501D01*
X87500Y75301D02*
Y79801D01*
X81500Y75301D02*
Y79801D01*
Y86501D02*
X87500D01*
X81500Y75301D02*
X87500D01*
X0Y-11800D02*
X6000Y-9800D01*
X0Y-11800D02*
X6000Y-13800D01*
X190850D02*
X196850Y-11800D01*
X190850Y-9800D02*
X196850Y-11800D01*
X0D02*
X75731D01*
X117919D02*
X196850D01*
X0Y-12800D02*
Y-1100D01*
X196850Y-12800D02*
Y-1100D01*
X-39500Y5900D02*
X-37500Y-100D01*
X-35500Y5900D01*
X-37500Y196750D02*
X-35500Y190750D01*
X-39500D02*
X-37500Y196750D01*
Y-100D02*
Y75631D01*
Y117819D02*
Y196750D01*
X-38500Y-100D02*
X0D01*
X-38500Y196750D02*
X0D01*
D14*
X161390Y154221D02*
G03*
X161390Y154221I-492J0D01*
G01*
D15*
X123817Y168890D02*
G03*
X121947Y168890I-935J0D01*
G01*
X1599Y85126D02*
X46795D01*
Y100717D01*
X1599Y85126D02*
Y100717D01*
X6500Y92922D02*
X29000D01*
X6500Y93422D02*
X29000D01*
Y92422D02*
Y93422D01*
X6500Y92422D02*
X29000D01*
X6500D02*
Y93422D01*
Y108012D02*
Y109012D01*
Y108012D02*
X29000D01*
Y109012D01*
X6500D02*
X29000D01*
X6500Y108512D02*
X29000D01*
X1599Y100717D02*
Y116307D01*
X46795D01*
Y100717D02*
Y116307D01*
X121747Y168890D02*
X123817D01*
X121947D02*
X124016D01*
Y180110D01*
X121747D02*
X124016D01*
X121747Y168890D02*
Y180110D01*
X194650Y110326D02*
Y122326D01*
Y82326D02*
Y94326D01*
X78748Y4858D02*
X102874D01*
X92252Y24150D02*
X102874D01*
X78748D02*
X90000D01*
X142874D02*
X154874D01*
X114874D02*
X126874D01*
X58622Y192150D02*
X70622D01*
X30622D02*
X42622D01*
X71374Y-402D02*
Y44795D01*
X55783D02*
X71374D01*
X55783Y-402D02*
X71374D01*
X63578Y4500D02*
Y27000D01*
X63078Y4500D02*
Y27000D01*
X64078D01*
Y4500D02*
Y27000D01*
X63078Y4500D02*
X64078D01*
X47488D02*
X48488D01*
Y27000D01*
X47488D02*
X48488D01*
X47488Y4500D02*
Y27000D01*
X47988Y4500D02*
Y27000D01*
X40193Y-402D02*
X55783D01*
X40193D02*
Y44795D01*
X55783D01*
X175500Y81099D02*
Y77766D01*
X176166Y77100D01*
X177499D01*
X178166Y77766D01*
Y81099D01*
X182165Y80432D02*
X181498Y81099D01*
X180165D01*
X179499Y80432D01*
Y79766D01*
X180165Y79099D01*
X181498D01*
X182165Y78433D01*
Y77766D01*
X181498Y77100D01*
X180165D01*
X179499Y77766D01*
X183497Y77100D02*
Y79766D01*
X184830Y81099D01*
X186163Y79766D01*
Y77100D01*
Y79099D01*
X183497D01*
X187496Y77100D02*
Y81099D01*
X189496D01*
X190162Y80432D01*
Y79099D01*
X189496Y78433D01*
X187496D01*
X188829D02*
X190162Y77100D01*
X191495Y81099D02*
X194161D01*
X192828D01*
Y77100D01*
X109932Y14301D02*
X110599Y14968D01*
Y16301D01*
X109932Y16967D01*
X109266D01*
X108599Y16301D01*
Y14968D01*
X107933Y14301D01*
X107266D01*
X106600Y14968D01*
Y16301D01*
X107266Y16967D01*
X106600Y12968D02*
X110599D01*
Y10969D01*
X109932Y10303D01*
X108599D01*
X107933Y10969D01*
Y12968D01*
X110599Y8970D02*
Y7637D01*
Y8303D01*
X106600D01*
Y8970D01*
Y7637D01*
X98500Y29299D02*
Y25300D01*
X101166D01*
X76432Y15634D02*
X77099Y16301D01*
Y17634D01*
X76432Y18300D01*
X73766D01*
X73100Y17634D01*
Y16301D01*
X73766Y15634D01*
X73100Y14301D02*
X75766D01*
X77099Y12968D01*
X75766Y11636D01*
X73100D01*
X75099D01*
Y14301D01*
X73100Y10303D02*
X77099D01*
X73100Y7637D01*
X77099D01*
X84200Y24901D02*
Y28900D01*
Y26901D01*
X81534D01*
Y24901D01*
Y28900D01*
X121500Y25100D02*
X117501D01*
X121500Y27766D01*
X117501D01*
X118168Y31765D02*
X117501Y31098D01*
Y29765D01*
X118168Y29099D01*
X118834D01*
X119501Y29765D01*
Y31098D01*
X120167Y31765D01*
X120834D01*
X121500Y31098D01*
Y29765D01*
X120834Y29099D01*
X118168Y35763D02*
X117501Y35097D01*
Y33764D01*
X118168Y33097D01*
X118834D01*
X119501Y33764D01*
Y35097D01*
X120167Y35763D01*
X120834D01*
X121500Y35097D01*
Y33764D01*
X120834Y33097D01*
X128568Y27766D02*
X127901Y27099D01*
Y25766D01*
X128568Y25100D01*
X131234D01*
X131900Y25766D01*
Y27099D01*
X131234Y27766D01*
X127901Y29099D02*
X131900D01*
Y31765D01*
X127901Y33097D02*
X131900D01*
X130567D01*
X127901Y35763D01*
X129901Y33764D01*
X131900Y35763D01*
X140900Y25100D02*
X136901D01*
X138234Y26433D01*
X136901Y27766D01*
X140900D01*
X136901Y29099D02*
Y30432D01*
Y29765D01*
X140900D01*
Y29099D01*
Y30432D01*
X137568Y35097D02*
X136901Y34430D01*
Y33097D01*
X137568Y32431D01*
X138234D01*
X138901Y33097D01*
Y34430D01*
X139567Y35097D01*
X140234D01*
X140900Y34430D01*
Y33097D01*
X140234Y32431D01*
X136901Y38429D02*
Y37096D01*
X137568Y36430D01*
X140234D01*
X140900Y37096D01*
Y38429D01*
X140234Y39096D01*
X137568D01*
X136901Y38429D01*
X151700Y25100D02*
X147701D01*
X149034Y26433D01*
X147701Y27766D01*
X151700D01*
X147701Y31098D02*
Y29765D01*
X148368Y29099D01*
X151033D01*
X151700Y29765D01*
Y31098D01*
X151033Y31765D01*
X148368D01*
X147701Y31098D01*
X148368Y35763D02*
X147701Y35097D01*
Y33764D01*
X148368Y33097D01*
X149034D01*
X149701Y33764D01*
Y35097D01*
X150367Y35763D01*
X151033D01*
X151700Y35097D01*
Y33764D01*
X151033Y33097D01*
X147701Y37096D02*
Y38429D01*
Y37763D01*
X151700D01*
Y37096D01*
Y38429D01*
X172132Y117500D02*
X172799Y116833D01*
Y115501D01*
X172132Y114834D01*
X169466D01*
X168800Y115501D01*
Y116833D01*
X169466Y117500D01*
X172132D01*
X172799Y111000D02*
Y108334D01*
Y109667D01*
X168800D01*
X172799Y107001D02*
X168800Y104335D01*
X172799D02*
X168800Y107001D01*
Y101100D02*
X172799D01*
Y99101D01*
X172132Y98434D01*
X170799D01*
X170133Y99101D01*
Y101100D01*
Y99767D02*
X168800Y98434D01*
X172799Y97101D02*
X168800Y94436D01*
X172799D02*
X168800Y97101D01*
X172132Y89900D02*
X172799Y89234D01*
Y87901D01*
X172132Y87234D01*
X171466D01*
X170799Y87901D01*
Y88567D01*
Y87901D01*
X170133Y87234D01*
X169466D01*
X168800Y87901D01*
Y89234D01*
X169466Y89900D01*
X69166Y197148D02*
X66500D01*
Y195149D01*
X67833Y195815D01*
X68499D01*
X69166Y195149D01*
Y193816D01*
X68499Y193150D01*
X67166D01*
X66500Y193816D01*
X54874Y197148D02*
Y193150D01*
X56873D01*
X57540Y193816D01*
Y194483D01*
X56873Y195149D01*
X54874D01*
X56873D01*
X57540Y195815D01*
Y196482D01*
X56873Y197148D01*
X54874D01*
X43248Y193150D02*
Y195815D01*
X44581Y197148D01*
X45914Y195815D01*
Y193150D01*
Y195149D01*
X43248D01*
X31622Y196482D02*
X32289Y197148D01*
X33621D01*
X34288Y196482D01*
Y193816D01*
X33621Y193150D01*
X32289D01*
X31622Y193816D01*
Y196482D01*
X60600Y50299D02*
X61933D01*
X61266D01*
Y46300D01*
X60600D01*
X61933D01*
X63932D02*
Y50299D01*
X66598Y46300D01*
Y50299D01*
X67931Y48299D02*
X70597D01*
X41000Y50299D02*
X42333D01*
X41666D01*
Y46300D01*
X41000D01*
X42333D01*
X44332D02*
Y50299D01*
X46998Y46300D01*
Y50299D01*
X48331Y48299D02*
X50997D01*
X49664Y49632D02*
Y46966D01*
X74200Y165300D02*
Y169299D01*
X76199D01*
X76866Y168632D01*
Y167299D01*
X76199Y166633D01*
X74200D01*
X75533D02*
X76866Y165300D01*
X78199Y168632D02*
X78865Y169299D01*
X80198D01*
X80865Y168632D01*
Y167966D01*
X80198Y167299D01*
X80865Y166633D01*
Y165966D01*
X80198Y165300D01*
X78865D01*
X78199Y165966D01*
Y166633D01*
X78865Y167299D01*
X78199Y167966D01*
Y168632D01*
X78865Y167299D02*
X80198D01*
X182066Y60032D02*
X181399Y60699D01*
X180067D01*
X179400Y60032D01*
Y57366D01*
X180067Y56700D01*
X181399D01*
X182066Y57366D01*
X186065Y56700D02*
X183399D01*
X186065Y59366D01*
Y60032D01*
X185398Y60699D01*
X184065D01*
X183399Y60032D01*
X187397D02*
X188064Y60699D01*
X189397D01*
X190063Y60032D01*
Y57366D01*
X189397Y56700D01*
X188064D01*
X187397Y57366D01*
Y60032D01*
X145068Y135666D02*
X144401Y134999D01*
Y133667D01*
X145068Y133000D01*
X147733D01*
X148400Y133667D01*
Y134999D01*
X147733Y135666D01*
X148400Y136999D02*
Y138332D01*
Y137665D01*
X144401D01*
X145068Y136999D01*
X144401Y142997D02*
X145068Y141664D01*
X146401Y140331D01*
X147733D01*
X148400Y140997D01*
Y142330D01*
X147733Y142997D01*
X147067D01*
X146401Y142330D01*
Y140331D01*
X98500Y48001D02*
Y51334D01*
X97834Y52000D01*
X96501D01*
X95834Y51334D01*
Y48001D01*
X94501Y51334D02*
X93835Y52000D01*
X92502D01*
X91835Y51334D01*
Y48668D01*
X92502Y48001D01*
X93835D01*
X94501Y48668D01*
Y49334D01*
X93835Y50001D01*
X91835D01*
X148500Y62999D02*
Y59666D01*
X149167Y59000D01*
X150499D01*
X151166Y59666D01*
Y62999D01*
X155165D02*
X153832Y62332D01*
X152499Y60999D01*
Y59666D01*
X153165Y59000D01*
X154498D01*
X155165Y59666D01*
Y60333D01*
X154498Y60999D01*
X152499D01*
X115200Y187299D02*
Y183967D01*
X115866Y183300D01*
X117199D01*
X117866Y183967D01*
Y187299D01*
X119199Y186632D02*
X119865Y187299D01*
X121198D01*
X121864Y186632D01*
Y185966D01*
X121198Y185299D01*
X120532D01*
X121198D01*
X121864Y184633D01*
Y183967D01*
X121198Y183300D01*
X119865D01*
X119199Y183967D01*
X117000Y119500D02*
Y123499D01*
X118999D01*
X119666Y122832D01*
Y121499D01*
X118999Y120833D01*
X117000D01*
X118333D02*
X119666Y119500D01*
X123664D02*
X120999D01*
X123664Y122166D01*
Y122832D01*
X122998Y123499D01*
X121665D01*
X120999Y122832D01*
X124997D02*
X125664Y123499D01*
X126997D01*
X127663Y122832D01*
Y122166D01*
X126997Y121499D01*
X127663Y120833D01*
Y120167D01*
X126997Y119500D01*
X125664D01*
X124997Y120167D01*
Y120833D01*
X125664Y121499D01*
X124997Y122166D01*
Y122832D01*
X125664Y121499D02*
X126997D01*
X77800Y61800D02*
Y65799D01*
X79799D01*
X80466Y65132D01*
Y63799D01*
X79799Y63133D01*
X77800D01*
X79133D02*
X80466Y61800D01*
X84465D02*
X81799D01*
X84465Y64466D01*
Y65132D01*
X83798Y65799D01*
X82465D01*
X81799Y65132D01*
X85797D02*
X86464Y65799D01*
X87797D01*
X88463Y65132D01*
Y64466D01*
X87797Y63799D01*
X87130D01*
X87797D01*
X88463Y63133D01*
Y62466D01*
X87797Y61800D01*
X86464D01*
X85797Y62466D01*
X102700Y31900D02*
Y35899D01*
X104699D01*
X105366Y35232D01*
Y33899D01*
X104699Y33233D01*
X102700D01*
X104033D02*
X105366Y31900D01*
X109364D02*
X106699D01*
X109364Y34566D01*
Y35232D01*
X108698Y35899D01*
X107365D01*
X106699Y35232D01*
X113363Y31900D02*
X110697D01*
X113363Y34566D01*
Y35232D01*
X112697Y35899D01*
X111364D01*
X110697Y35232D01*
X82600Y96600D02*
X86599D01*
Y94601D01*
X85932Y93934D01*
X84599D01*
X83933Y94601D01*
Y96600D01*
Y95267D02*
X82600Y93934D01*
Y89935D02*
Y92601D01*
X85266Y89935D01*
X85932D01*
X86599Y90602D01*
Y91935D01*
X85932Y92601D01*
X82600Y88603D02*
Y87270D01*
Y87936D01*
X86599D01*
X85932Y88603D01*
X110000Y85600D02*
X113999D01*
Y83601D01*
X113332Y82934D01*
X111999D01*
X111333Y83601D01*
Y85600D01*
Y84267D02*
X110000Y82934D01*
Y78935D02*
Y81601D01*
X112666Y78935D01*
X113332D01*
X113999Y79602D01*
Y80935D01*
X113332Y81601D01*
Y77603D02*
X113999Y76936D01*
Y75603D01*
X113332Y74937D01*
X110667D01*
X110000Y75603D01*
Y76936D01*
X110667Y77603D01*
X113332D01*
X101800Y61800D02*
Y65799D01*
X103799D01*
X104466Y65132D01*
Y63799D01*
X103799Y63133D01*
X101800D01*
X103133D02*
X104466Y61800D01*
X105799D02*
X107132D01*
X106465D01*
Y65799D01*
X105799Y65132D01*
X109131Y62466D02*
X109797Y61800D01*
X111130D01*
X111797Y62466D01*
Y65132D01*
X111130Y65799D01*
X109797D01*
X109131Y65132D01*
Y64466D01*
X109797Y63799D01*
X111797D01*
X87700Y186900D02*
Y190899D01*
X89699D01*
X90366Y190232D01*
Y188899D01*
X89699Y188233D01*
X87700D01*
X89033D02*
X90366Y186900D01*
X91699Y187566D02*
X92365Y186900D01*
X93698D01*
X94365Y187566D01*
Y190232D01*
X93698Y190899D01*
X92365D01*
X91699Y190232D01*
Y189566D01*
X92365Y188899D01*
X94365D01*
X72500Y186900D02*
Y190899D01*
X74499D01*
X75166Y190232D01*
Y188899D01*
X74499Y188233D01*
X72500D01*
X73833D02*
X75166Y186900D01*
X76499Y190899D02*
X79164D01*
Y190232D01*
X76499Y187566D01*
Y186900D01*
X138400Y181600D02*
X134401D01*
Y183599D01*
X135068Y184266D01*
X136401D01*
X137067Y183599D01*
Y181600D01*
Y182933D02*
X138400Y184266D01*
X134401Y188265D02*
X135068Y186932D01*
X136401Y185599D01*
X137733D01*
X138400Y186265D01*
Y187598D01*
X137733Y188265D01*
X137067D01*
X136401Y187598D01*
Y185599D01*
X25200Y166100D02*
Y170099D01*
X27199D01*
X27866Y169432D01*
Y168099D01*
X27199Y167433D01*
X25200D01*
X26533D02*
X27866Y166100D01*
X31865Y170099D02*
X29199D01*
Y168099D01*
X30532Y168766D01*
X31198D01*
X31865Y168099D01*
Y166767D01*
X31198Y166100D01*
X29865D01*
X29199Y166767D01*
X128201Y157000D02*
Y153001D01*
X126201D01*
X125535Y153668D01*
Y155001D01*
X126201Y155667D01*
X128201D01*
X126868D02*
X125535Y157000D01*
X122203D02*
Y153001D01*
X124202Y155001D01*
X121536D01*
X143000Y190900D02*
Y194899D01*
X144999D01*
X145666Y194232D01*
Y192899D01*
X144999Y192233D01*
X143000D01*
X144333D02*
X145666Y190900D01*
X146999Y194232D02*
X147665Y194899D01*
X148998D01*
X149664Y194232D01*
Y193566D01*
X148998Y192899D01*
X148332D01*
X148998D01*
X149664Y192233D01*
Y191567D01*
X148998Y190900D01*
X147665D01*
X146999Y191567D01*
X103600Y128000D02*
Y131999D01*
X105599D01*
X106266Y131332D01*
Y129999D01*
X105599Y129333D01*
X103600D01*
X104933D02*
X106266Y128000D01*
X110265D02*
X107599D01*
X110265Y130666D01*
Y131332D01*
X109598Y131999D01*
X108265D01*
X107599Y131332D01*
X109800Y185300D02*
X105801D01*
Y187299D01*
X106468Y187966D01*
X107801D01*
X108467Y187299D01*
Y185300D01*
Y186633D02*
X109800Y187966D01*
Y189299D02*
Y190632D01*
Y189965D01*
X105801D01*
X106468Y189299D01*
X24700Y71437D02*
Y75435D01*
X22701D01*
X22034Y74769D01*
Y72103D01*
X22701Y71437D01*
X24700D01*
X20701Y75435D02*
X19368D01*
X20035D01*
Y71437D01*
X20701Y72103D01*
X14703Y75435D02*
X17369D01*
X14703Y72770D01*
Y72103D01*
X15370Y71437D01*
X16703D01*
X17369Y72103D01*
X119366Y102932D02*
X118699Y103599D01*
X117367D01*
X116700Y102932D01*
Y100266D01*
X117367Y99600D01*
X118699D01*
X119366Y100266D01*
X120699Y102932D02*
X121365Y103599D01*
X122698D01*
X123364Y102932D01*
Y102266D01*
X122698Y101599D01*
X122032D01*
X122698D01*
X123364Y100933D01*
Y100266D01*
X122698Y99600D01*
X121365D01*
X120699Y100266D01*
X127363Y103599D02*
X124697D01*
Y101599D01*
X126030Y102266D01*
X126697D01*
X127363Y101599D01*
Y100266D01*
X126697Y99600D01*
X125364D01*
X124697Y100266D01*
X123832Y52834D02*
X124499Y53501D01*
Y54834D01*
X123832Y55500D01*
X121167D01*
X120500Y54834D01*
Y53501D01*
X121167Y52834D01*
X123832Y51501D02*
X124499Y50835D01*
Y49502D01*
X123832Y48836D01*
X123166D01*
X122499Y49502D01*
Y50168D01*
Y49502D01*
X121833Y48836D01*
X121167D01*
X120500Y49502D01*
Y50835D01*
X121167Y51501D01*
X123832Y47503D02*
X124499Y46836D01*
Y45503D01*
X123832Y44837D01*
X121167D01*
X120500Y45503D01*
Y46836D01*
X121167Y47503D01*
X123832D01*
X165768Y20666D02*
X165101Y19999D01*
Y18666D01*
X165768Y18000D01*
X168433D01*
X169100Y18666D01*
Y19999D01*
X168433Y20666D01*
X169100Y24665D02*
Y21999D01*
X166434Y24665D01*
X165768D01*
X165101Y23998D01*
Y22665D01*
X165768Y21999D01*
X165101Y25997D02*
Y28663D01*
X165768D01*
X168433Y25997D01*
X169100D01*
X182966Y72032D02*
X182299Y72699D01*
X180966D01*
X180300Y72032D01*
Y69366D01*
X180966Y68700D01*
X182299D01*
X182966Y69366D01*
X186964Y68700D02*
X184299D01*
X186964Y71366D01*
Y72032D01*
X186298Y72699D01*
X184965D01*
X184299Y72032D01*
X190963Y72699D02*
X189630Y72032D01*
X188297Y70699D01*
Y69366D01*
X188964Y68700D01*
X190297D01*
X190963Y69366D01*
Y70033D01*
X190297Y70699D01*
X188297D01*
X119968Y75566D02*
X119301Y74899D01*
Y73566D01*
X119968Y72900D01*
X122634D01*
X123300Y73566D01*
Y74899D01*
X122634Y75566D01*
X123300Y79564D02*
Y76899D01*
X120634Y79564D01*
X119968D01*
X119301Y78898D01*
Y77565D01*
X119968Y76899D01*
X123300Y82897D02*
X119301D01*
X121301Y80897D01*
Y83563D01*
X159568Y20766D02*
X158901Y20099D01*
Y18767D01*
X159568Y18100D01*
X162233D01*
X162900Y18767D01*
Y20099D01*
X162233Y20766D01*
X162900Y22099D02*
Y23432D01*
Y22765D01*
X158901D01*
X159568Y22099D01*
X162233Y25431D02*
X162900Y26097D01*
Y27430D01*
X162233Y28097D01*
X159568D01*
X158901Y27430D01*
Y26097D01*
X159568Y25431D01*
X160234D01*
X160901Y26097D01*
Y28097D01*
X160966Y166732D02*
X160299Y167399D01*
X158967D01*
X158300Y166732D01*
Y164067D01*
X158967Y163400D01*
X160299D01*
X160966Y164067D01*
X162299Y163400D02*
X163632D01*
X162965D01*
Y167399D01*
X162299Y166732D01*
X165631D02*
X166297Y167399D01*
X167630D01*
X168297Y166732D01*
Y166066D01*
X167630Y165399D01*
X168297Y164733D01*
Y164067D01*
X167630Y163400D01*
X166297D01*
X165631Y164067D01*
Y164733D01*
X166297Y165399D01*
X165631Y166066D01*
Y166732D01*
X166297Y165399D02*
X167630D01*
X138868Y135666D02*
X138201Y134999D01*
Y133667D01*
X138868Y133000D01*
X141534D01*
X142200Y133667D01*
Y134999D01*
X141534Y135666D01*
X142200Y136999D02*
Y138332D01*
Y137665D01*
X138201D01*
X138868Y136999D01*
X138201Y140331D02*
Y142997D01*
X138868D01*
X141534Y140331D01*
X142200D01*
X158868Y148066D02*
X158201Y147399D01*
Y146066D01*
X158868Y145400D01*
X161533D01*
X162200Y146066D01*
Y147399D01*
X161533Y148066D01*
X162200Y149399D02*
Y150732D01*
Y150065D01*
X158201D01*
X158868Y149399D01*
X158201Y155397D02*
Y152731D01*
X160201D01*
X159534Y154064D01*
Y154730D01*
X160201Y155397D01*
X161533D01*
X162200Y154730D01*
Y153397D01*
X161533Y152731D01*
X108168Y144166D02*
X107501Y143499D01*
Y142166D01*
X108168Y141500D01*
X110834D01*
X111500Y142166D01*
Y143499D01*
X110834Y144166D01*
X111500Y145499D02*
Y146832D01*
Y146165D01*
X107501D01*
X108168Y145499D01*
X111500Y150830D02*
X107501D01*
X109501Y148831D01*
Y151497D01*
X85666Y170332D02*
X84999Y170999D01*
X83666D01*
X83000Y170332D01*
Y167666D01*
X83666Y167000D01*
X84999D01*
X85666Y167666D01*
X86999Y167000D02*
X88332D01*
X87665D01*
Y170999D01*
X86999Y170332D01*
X90331D02*
X90997Y170999D01*
X92330D01*
X92997Y170332D01*
Y169666D01*
X92330Y168999D01*
X91664D01*
X92330D01*
X92997Y168333D01*
Y167666D01*
X92330Y167000D01*
X90997D01*
X90331Y167666D01*
X158868Y134266D02*
X158201Y133599D01*
Y132266D01*
X158868Y131600D01*
X161533D01*
X162200Y132266D01*
Y133599D01*
X161533Y134266D01*
X162200Y135599D02*
Y136932D01*
Y136265D01*
X158201D01*
X158868Y135599D01*
X162200Y141597D02*
Y138931D01*
X159534Y141597D01*
X158868D01*
X158201Y140930D01*
Y139597D01*
X158868Y138931D01*
X174266Y127732D02*
X173599Y128399D01*
X172266D01*
X171600Y127732D01*
Y125066D01*
X172266Y124400D01*
X173599D01*
X174266Y125066D01*
X175599Y124400D02*
X176932D01*
X176265D01*
Y128399D01*
X175599Y127732D01*
X178931Y124400D02*
X180264D01*
X179597D01*
Y128399D01*
X178931Y127732D01*
X145666Y189332D02*
X144999Y189999D01*
X143667D01*
X143000Y189332D01*
Y186667D01*
X143667Y186000D01*
X144999D01*
X145666Y186667D01*
X146999D02*
X147665Y186000D01*
X148998D01*
X149664Y186667D01*
Y189332D01*
X148998Y189999D01*
X147665D01*
X146999Y189332D01*
Y188666D01*
X147665Y187999D01*
X149664D01*
X159032Y185334D02*
X159699Y186001D01*
Y187334D01*
X159032Y188000D01*
X156367D01*
X155700Y187334D01*
Y186001D01*
X156367Y185334D01*
X159032Y184001D02*
X159699Y183335D01*
Y182002D01*
X159032Y181335D01*
X158366D01*
X157699Y182002D01*
X157033Y181335D01*
X156367D01*
X155700Y182002D01*
Y183335D01*
X156367Y184001D01*
X157033D01*
X157699Y183335D01*
X158366Y184001D01*
X159032D01*
X157699Y183335D02*
Y182002D01*
X165432Y185134D02*
X166099Y185801D01*
Y187134D01*
X165432Y187800D01*
X162767D01*
X162100Y187134D01*
Y185801D01*
X162767Y185134D01*
X166099Y183801D02*
Y181135D01*
X165432D01*
X162767Y183801D01*
X162100D01*
X51866Y104132D02*
X51199Y104799D01*
X49866D01*
X49200Y104132D01*
Y101466D01*
X49866Y100800D01*
X51199D01*
X51866Y101466D01*
X55865Y104799D02*
X54532Y104132D01*
X53199Y102799D01*
Y101466D01*
X53865Y100800D01*
X55198D01*
X55865Y101466D01*
Y102133D01*
X55198Y102799D01*
X53199D01*
X33966Y82632D02*
X33299Y83299D01*
X31966D01*
X31300Y82632D01*
Y79966D01*
X31966Y79300D01*
X33299D01*
X33966Y79966D01*
X37964Y83299D02*
X35299D01*
Y81299D01*
X36632Y81966D01*
X37298D01*
X37964Y81299D01*
Y79966D01*
X37298Y79300D01*
X35965D01*
X35299Y79966D01*
X101866Y94832D02*
X101199Y95499D01*
X99866D01*
X99200Y94832D01*
Y92166D01*
X99866Y91500D01*
X101199D01*
X101866Y92166D01*
X105198Y91500D02*
Y95499D01*
X103199Y93499D01*
X105865D01*
X103866Y138832D02*
X103199Y139499D01*
X101866D01*
X101200Y138832D01*
Y136167D01*
X101866Y135500D01*
X103199D01*
X103866Y136167D01*
X105199Y138832D02*
X105865Y139499D01*
X107198D01*
X107864Y138832D01*
Y138166D01*
X107198Y137499D01*
X106532D01*
X107198D01*
X107864Y136833D01*
Y136167D01*
X107198Y135500D01*
X105865D01*
X105199Y136167D01*
X101966Y100832D02*
X101299Y101499D01*
X99966D01*
X99300Y100832D01*
Y98166D01*
X99966Y97500D01*
X101299D01*
X101966Y98166D01*
X105965Y97500D02*
X103299D01*
X105965Y100166D01*
Y100832D01*
X105298Y101499D01*
X103965D01*
X103299Y100832D01*
X124332Y162834D02*
X124999Y163501D01*
Y164833D01*
X124332Y165500D01*
X121667D01*
X121000Y164833D01*
Y163501D01*
X121667Y162834D01*
X121000Y161501D02*
Y160168D01*
Y160835D01*
X124999D01*
X124332Y161501D01*
X196850Y-100D02*
Y196750D01*
X0Y-100D02*
X196850Y-100D01*
X0D02*
Y196750D01*
Y196750D02*
X196850Y196750D01*
D16*
X171559Y44887D02*
G03*
X171559Y44887I-984J0D01*
G01*
D17*
X159559Y52887D02*
G03*
X159559Y52887I-984J0D01*
G01*
X176496Y135076D02*
Y138383D01*
X174764Y136572D02*
X178858D01*
X176811Y144682D02*
Y147635D01*
D18*
X145000Y156100D02*
G03*
X143100Y154500I-150J-1750D01*
G01*
X143000Y147500D02*
G03*
X145000Y145400I2050J-50D01*
G01*
X147000Y145400D02*
G03*
X148700Y147500I-200J1900D01*
G01*
X148800Y154500D02*
G03*
X147000Y156100I-1700J-100D01*
G01*
X157900Y169000D02*
G03*
X159800Y170600I150J1750D01*
G01*
X159900Y177600D02*
G03*
X157900Y179700I-2050J50D01*
G01*
X155900Y179700D02*
G03*
X154200Y177600I200J-1900D01*
G01*
X154100Y170600D02*
G03*
X155900Y169000I1700J100D01*
G01*
X140100Y156100D02*
G03*
X138200Y154500I-150J-1750D01*
G01*
X138100Y147500D02*
G03*
X140100Y145400I2050J-50D01*
G01*
X142100Y145400D02*
G03*
X143800Y147500I-200J1900D01*
G01*
X143900Y154500D02*
G03*
X142100Y156100I-1700J-100D01*
G01*
X81500Y165000D02*
X89000D01*
X81500Y155000D02*
X89000D01*
X97500D02*
X105000D01*
X97500Y165000D02*
X105000D01*
X81500Y155000D02*
Y165000D01*
X105000Y155000D02*
Y165000D01*
X67298Y162061D02*
X79502D01*
X67328Y134772D02*
X69100Y133000D01*
X77800D02*
X79572Y134772D01*
X69069Y132958D02*
X77731D01*
X67300Y151764D02*
Y162000D01*
X79600Y151764D02*
Y162000D01*
Y134800D02*
Y144446D01*
X67300Y134900D02*
Y144546D01*
X32995Y58179D02*
Y62935D01*
X6700D02*
X32995D01*
X6700Y58179D02*
Y62935D01*
X32995Y30935D02*
Y58179D01*
X6700Y30935D02*
X32995D01*
X6700D02*
Y58179D01*
X185898Y131977D02*
Y158355D01*
X173102Y131977D02*
Y158355D01*
X185898D01*
X173102Y131977D02*
X185898D01*
X148700Y147500D02*
Y149300D01*
X145000Y145400D02*
X147000D01*
X143000Y147500D02*
Y149100D01*
X143100Y151900D02*
Y154500D01*
X145000Y156100D02*
X147000D01*
X148800Y152200D02*
Y154500D01*
X175358Y82326D02*
X194650D01*
X175358D02*
Y122326D01*
X194650D01*
X191831Y110326D02*
X194650D01*
X191831Y94326D02*
X194650D01*
X191831D02*
Y110326D01*
X90000Y21331D02*
X92252D01*
Y24150D01*
X90000Y21331D02*
Y24150D01*
X78748Y4858D02*
Y24150D01*
X103126Y4858D02*
Y24150D01*
X154200Y175800D02*
Y177600D01*
X155900Y179700D02*
X157900D01*
X159900Y176000D02*
Y177600D01*
X159800Y170600D02*
Y173200D01*
X155900Y169000D02*
X157900D01*
X154100Y170600D02*
Y172900D01*
X143800Y147500D02*
Y149300D01*
X140100Y145400D02*
X142100D01*
X138100Y147500D02*
Y149100D01*
X138200Y151900D02*
Y154500D01*
X140100Y156100D02*
X142100D01*
X143900Y152200D02*
Y154500D01*
X126874Y21331D02*
X142874D01*
Y24150D01*
X126874Y21331D02*
Y24150D01*
X114874Y4858D02*
Y24150D01*
Y4858D02*
X154874D01*
Y24150D01*
X42622Y189331D02*
X58622D01*
Y192150D01*
X42622Y189331D02*
Y192150D01*
X30622Y172858D02*
Y192150D01*
Y172858D02*
X70622D01*
Y192150D01*
D19*
X39483Y56116D02*
Y56135D01*
Y56116D02*
X43300Y52300D01*
X74900D01*
X45100Y76735D02*
Y81735D01*
X42700Y79035D02*
X47700D01*
D20*
X92743Y82554D02*
X94200Y81098D01*
X91287D02*
X94200D01*
X91287D02*
X92743Y82554D01*
X186382Y82326D02*
Y84610D01*
X188350D01*
Y82326D02*
Y84610D01*
X186382Y120043D02*
Y122326D01*
Y120043D02*
X188350D01*
Y122326D01*
X78748Y17850D02*
X81032D01*
Y15882D02*
Y17850D01*
X78748Y15882D02*
X81032D01*
X100842Y17850D02*
X103126D01*
X100842Y15882D02*
Y17850D01*
Y15882D02*
X103126D01*
X106457Y81046D02*
X107913Y82503D01*
X105000D02*
X107913D01*
X105000D02*
X106457Y81046D01*
X117398Y63913D02*
X118854Y62457D01*
X117398Y61000D02*
Y63913D01*
Y61000D02*
X118854Y62457D01*
X114874Y17850D02*
X117157D01*
Y15882D02*
Y17850D01*
X114874Y15882D02*
X117157D01*
X152591Y17850D02*
X154874D01*
X152591Y15882D02*
Y17850D01*
Y15882D02*
X154874D01*
X30622Y185850D02*
X32906D01*
Y183882D02*
Y185850D01*
X30622Y183882D02*
X32906D01*
X68339Y185850D02*
X70622D01*
X68339Y183882D02*
Y185850D01*
Y183882D02*
X70622D01*
X73400Y147313D02*
Y148887D01*
X72613Y148100D02*
X74187D01*
D21*
X175000Y32000D02*
Y51000D01*
X190000D01*
Y32000D02*
Y51000D01*
X175000Y32000D02*
X190000D01*
M02*
