G04*
G04 #@! TF.GenerationSoftware,Altium Limited,Altium Designer,18.1.3 (115)*
G04*
G04 Layer_Physical_Order=1*
G04 Layer_Color=255*
%FSLAX25Y25*%
%MOIN*%
G70*
G01*
G75*
%ADD15C,0.00800*%
%ADD16C,0.02000*%
%ADD20C,0.00394*%
%ADD63C,0.03937*%
%ADD64R,0.15748X0.07874*%
%ADD65R,0.06000X0.06299*%
%ADD66R,0.03000X0.03000*%
%ADD67R,0.03000X0.03000*%
%ADD68R,0.07087X0.07087*%
%ADD69R,0.06000X0.06000*%
%ADD70R,0.05000X0.05200*%
%ADD71R,0.06000X0.05000*%
%ADD72R,0.09055X0.09055*%
%ADD73R,0.23000X0.24500*%
%ADD74R,0.06000X0.11000*%
%ADD75R,0.06000X0.11500*%
%ADD76R,0.21654X0.08465*%
%ADD77R,0.06890X0.17717*%
%ADD78R,0.03150X0.03799*%
%ADD79R,0.04724X0.05906*%
%ADD80R,0.13780X0.03937*%
%ADD81R,0.39370X0.42520*%
%ADD82C,0.05906*%
%ADD83R,0.08465X0.04331*%
%ADD84R,0.08465X0.04331*%
%ADD85R,0.08465X0.13780*%
%ADD86R,0.05906X0.02362*%
%ADD87O,0.05906X0.02362*%
%ADD88O,0.01968X0.07874*%
%ADD89O,0.07874X0.01968*%
%ADD90O,0.08000X0.02400*%
%ADD91R,0.03799X0.03150*%
%ADD92R,0.05200X0.05000*%
%ADD93C,0.03000*%
%ADD94C,0.01500*%
%ADD95C,0.04000*%
%ADD96C,0.02500*%
%ADD97C,0.08500*%
%ADD98R,0.15800X0.07400*%
%ADD99R,0.11000X0.10100*%
%ADD100R,0.19000X0.05000*%
%ADD101R,0.14500X0.14500*%
%ADD102R,0.09449X0.09449*%
%ADD103C,0.09449*%
%ADD104R,0.05906X0.05906*%
%ADD105R,0.05906X0.05906*%
%ADD106C,0.19685*%
%ADD107R,0.09449X0.09449*%
%ADD108C,0.03000*%
%ADD109C,0.05000*%
%ADD110C,0.03500*%
%ADD111C,0.04000*%
%ADD112C,0.02000*%
G36*
X196600Y195885D02*
Y153056D01*
X186472D01*
Y148192D01*
X172528D01*
Y148331D01*
X172100D01*
Y151056D01*
X172528D01*
Y152182D01*
X177073D01*
X177546Y151866D01*
X178021Y151772D01*
Y154221D01*
Y156671D01*
X177546Y156576D01*
X177073Y156260D01*
X172528D01*
Y157387D01*
X172520D01*
Y166800D01*
X172474Y167032D01*
X172775Y167405D01*
X174107Y168266D01*
X175562Y167375D01*
X177139Y166722D01*
X178799Y166323D01*
X180500Y166189D01*
X182201Y166323D01*
X183861Y166722D01*
X185438Y167375D01*
X186893Y168266D01*
X188190Y169375D01*
X189299Y170673D01*
X190191Y172128D01*
X190844Y173705D01*
X191242Y175364D01*
X191376Y177065D01*
X191242Y178767D01*
X190844Y180426D01*
X190191Y182003D01*
X189299Y183458D01*
X188190Y184756D01*
X186893Y185864D01*
X185438Y186756D01*
X183861Y187409D01*
X182201Y187808D01*
X180500Y187941D01*
X178799Y187808D01*
X177139Y187409D01*
X175562Y186756D01*
X174107Y185864D01*
X172810Y184756D01*
X171701Y183458D01*
X170809Y182003D01*
X170156Y180426D01*
X169758Y178767D01*
X169624Y177065D01*
X169758Y175364D01*
X170156Y173705D01*
X170809Y172128D01*
X171390Y171180D01*
X169808Y169934D01*
X166642Y173100D01*
X166400Y175000D01*
X166400Y175000D01*
Y180000D01*
X165939D01*
Y184800D01*
X165784Y185580D01*
X165483Y186030D01*
X165355Y186676D01*
X164802Y187502D01*
X163976Y188055D01*
X163000Y188249D01*
X162024Y188055D01*
X161198Y187502D01*
X160645Y186676D01*
X160451Y185700D01*
X160645Y184724D01*
X161198Y183898D01*
X161861Y183454D01*
Y180000D01*
X161400D01*
Y179841D01*
X159500Y179600D01*
X159500Y179600D01*
X159500Y179600D01*
X154500D01*
X154500Y179600D01*
Y179600D01*
X152600Y179841D01*
X151500Y180500D01*
Y185500D01*
X146500D01*
Y185500D01*
X145500D01*
Y185500D01*
X140500D01*
Y181918D01*
X139441Y180431D01*
X138552Y180374D01*
X133600D01*
Y180279D01*
X130646D01*
X130623Y180295D01*
X129772Y180464D01*
X126228D01*
X125377Y180295D01*
X124656Y179813D01*
X124174Y179091D01*
X124004Y178240D01*
X124174Y177389D01*
X124334Y177078D01*
X124029Y176563D01*
X121745Y176627D01*
X121544Y177017D01*
X121506Y177263D01*
X121590Y177389D01*
X121759Y178240D01*
X121590Y179091D01*
X121108Y179813D01*
X120386Y180295D01*
X119535Y180464D01*
X115992D01*
X115141Y180295D01*
X115118Y180279D01*
X113604D01*
X111643Y182241D01*
X111400Y182404D01*
Y183374D01*
X105600D01*
Y182608D01*
X105212Y182295D01*
X103202Y181702D01*
X102375Y182255D01*
X101400Y182449D01*
X100425Y182255D01*
X99598Y181702D01*
X99045Y180876D01*
X97074Y181218D01*
Y185000D01*
X97074D01*
X97255Y186925D01*
X97349Y187400D01*
X97155Y188375D01*
X96602Y189202D01*
X95776Y189755D01*
X94800Y189949D01*
X93824Y189755D01*
X92998Y189202D01*
X92445Y188375D01*
X92251Y187400D01*
X92331Y187000D01*
X91924Y185000D01*
X90775D01*
X89924Y185000D01*
X85625D01*
Y181109D01*
X83874Y179358D01*
X81874Y180186D01*
X81874Y180639D01*
Y185000D01*
X81874Y185000D01*
X81981Y186955D01*
X82149Y187800D01*
X81955Y188776D01*
X81402Y189602D01*
X80576Y190155D01*
X79600Y190349D01*
X78624Y190155D01*
X77798Y189602D01*
X77245Y188776D01*
X77051Y187800D01*
X77210Y187000D01*
X77138Y186451D01*
X76724Y185000D01*
X75575D01*
X74724Y185000D01*
X70425D01*
Y182039D01*
X67729D01*
X67716Y182047D01*
X66480Y183958D01*
X66482Y184039D01*
X66609Y185000D01*
X66473Y186032D01*
X66075Y186993D01*
X65441Y187819D01*
X64615Y188453D01*
X63654Y188851D01*
X62622Y188987D01*
X61590Y188851D01*
X60629Y188453D01*
X59908Y187900D01*
X59756Y187819D01*
X57614D01*
X57462Y187900D01*
X56741Y188453D01*
X55780Y188851D01*
X54748Y188987D01*
X53716Y188851D01*
X52755Y188453D01*
X52034Y187900D01*
X51882Y187819D01*
X49740D01*
X49588Y187900D01*
X48867Y188453D01*
X47906Y188851D01*
X46874Y188987D01*
X45842Y188851D01*
X44881Y188453D01*
X42953Y188953D01*
Y188953D01*
X39500D01*
Y185000D01*
X39000D01*
Y184500D01*
X35047D01*
Y181047D01*
X36961D01*
Y174217D01*
X36860Y174140D01*
X36380Y173513D01*
X36077Y172783D01*
X35974Y172000D01*
Y171000D01*
X35000D01*
Y168300D01*
X29088D01*
X28166Y170300D01*
X28484Y170673D01*
X29376Y172128D01*
X30029Y173705D01*
X30427Y175364D01*
X30561Y177065D01*
X30427Y178767D01*
X30029Y180426D01*
X29376Y182003D01*
X28484Y183458D01*
X27376Y184756D01*
X26078Y185864D01*
X24623Y186756D01*
X23046Y187409D01*
X21386Y187808D01*
X19685Y187941D01*
X17984Y187808D01*
X16324Y187409D01*
X14747Y186756D01*
X13292Y185864D01*
X11994Y184756D01*
X10886Y183458D01*
X9994Y182003D01*
X9341Y180426D01*
X8943Y178767D01*
X8809Y177065D01*
X8943Y175364D01*
X9341Y173705D01*
X9994Y172128D01*
X10886Y170673D01*
X11204Y170300D01*
X10282Y168300D01*
X600D01*
Y196400D01*
X848Y197001D01*
X195185Y197298D01*
X196600Y195885D01*
D02*
G37*
G36*
X165432Y172868D02*
X171500Y166800D01*
Y152000D01*
X138000D01*
Y169000D01*
X145000D01*
Y163800D01*
X147800Y161000D01*
X159400D01*
X162200Y163800D01*
Y168500D01*
X160400Y170300D01*
X155700D01*
X155500Y170100D01*
X155400Y170200D01*
Y173100D01*
X165200D01*
X165432Y172868D01*
D02*
G37*
G36*
X136400Y155600D02*
Y152000D01*
X137500Y150900D01*
X154400D01*
Y145800D01*
X149200D01*
X143700Y140300D01*
X134200D01*
Y157800D01*
X136400Y155600D01*
D02*
G37*
G36*
X164450Y143550D02*
X163200Y142300D01*
X158900Y138000D01*
X147900D01*
Y141200D01*
X157000D01*
X160100Y144300D01*
X163100Y147300D01*
X164450Y143550D01*
D02*
G37*
G36*
X186472Y137276D02*
X189411D01*
Y129616D01*
X187500Y129400D01*
Y129400D01*
X185500D01*
Y126900D01*
X184500D01*
Y129400D01*
X182500D01*
Y128639D01*
X180048D01*
X179576Y128955D01*
X179100Y129050D01*
Y126600D01*
Y124151D01*
X179576Y124245D01*
X180048Y124561D01*
X182500D01*
Y124400D01*
X183143D01*
X183908Y122552D01*
X182402Y121046D01*
X181993Y120773D01*
X180078Y118858D01*
X179580Y118113D01*
X179568Y118049D01*
X179206Y117138D01*
X178400Y116742D01*
Y113948D01*
X177400D01*
Y116398D01*
X176925Y116303D01*
X176530Y116039D01*
X160690D01*
X160626Y116107D01*
X159804Y118039D01*
X159872Y118142D01*
X160043Y119000D01*
X159872Y119858D01*
X159386Y120586D01*
X158658Y121072D01*
X157800Y121243D01*
X157679D01*
X157490Y121594D01*
X157157Y123243D01*
X157496Y123504D01*
X158057Y124235D01*
X158077Y124282D01*
X159192Y124782D01*
X159975Y124946D01*
X160404Y124908D01*
X160691Y124716D01*
X161472Y124561D01*
X177152D01*
X177624Y124245D01*
X178100Y124151D01*
Y126600D01*
Y129050D01*
X177624Y128955D01*
X177152Y128639D01*
X174269D01*
X174220Y128700D01*
Y138800D01*
X174142Y139190D01*
X173921Y139521D01*
X173614Y139726D01*
X173080Y140140D01*
X173764Y142140D01*
X186472D01*
Y137276D01*
D02*
G37*
G36*
X152800Y131100D02*
X152940D01*
X153322Y129177D01*
X153282Y129077D01*
X153235Y129057D01*
X152504Y128496D01*
X151943Y127765D01*
X151590Y126914D01*
X151529Y126453D01*
X144039Y118963D01*
X143020Y119148D01*
X141962Y119714D01*
X141884Y120106D01*
X141442Y120767D01*
X136567Y125642D01*
X135906Y126084D01*
X135126Y126239D01*
X121700D01*
X120920Y126084D01*
X120258Y125642D01*
X112590Y117973D01*
X110600Y118812D01*
Y121074D01*
X111900Y122141D01*
Y125100D01*
X112400D01*
Y125600D01*
X114849D01*
X114755Y126075D01*
X114476Y126493D01*
X116945Y128961D01*
X146800D01*
X147580Y129116D01*
X148242Y129558D01*
X150244Y131561D01*
X152800D01*
Y131100D01*
D02*
G37*
G36*
X196600Y111378D02*
X194746Y110285D01*
X194600Y110306D01*
X194242Y110842D01*
X191636Y113448D01*
X187500D01*
Y114448D01*
X191453D01*
Y117901D01*
X188358D01*
X187593Y119748D01*
X192244Y124400D01*
X193500D01*
Y126242D01*
X193824Y126727D01*
X193999Y127605D01*
Y137276D01*
X196600D01*
Y111378D01*
D02*
G37*
G36*
X103500Y163500D02*
X103900Y163100D01*
Y144600D01*
X101600Y141000D01*
Y106100D01*
X97000Y101500D01*
X89400Y101500D01*
X89400Y109500D01*
X92700Y113790D01*
Y140914D01*
X96200Y146400D01*
Y156900D01*
X96099Y163500D01*
X103500Y163500D01*
D02*
G37*
G36*
X109600Y117900D02*
Y98400D01*
X101000Y89800D01*
X73200D01*
Y81500D01*
X79000Y75700D01*
Y71300D01*
X63200D01*
X62500Y72000D01*
Y95000D01*
X64400Y96900D01*
X71200D01*
X72700Y95400D01*
X98400D01*
X103500Y100500D01*
X103500Y117900D01*
X109600Y117900D01*
D02*
G37*
G36*
X117126Y112600D02*
Y112600D01*
X117917D01*
Y109500D01*
X117500D01*
Y104500D01*
X118216D01*
Y98200D01*
X118351Y97517D01*
X118738Y96938D01*
X121188Y94488D01*
X121188Y94488D01*
X121767Y94102D01*
X122450Y93966D01*
X123750D01*
X125451Y92500D01*
X125645Y91524D01*
X126198Y90698D01*
X127024Y90145D01*
X127665Y90018D01*
X127931Y89499D01*
X127314Y87534D01*
X122289D01*
X119745Y90079D01*
X119749Y90100D01*
X119555Y91075D01*
X119002Y91902D01*
X118175Y92455D01*
X117200Y92649D01*
X116225Y92455D01*
X115398Y91902D01*
X114845Y91075D01*
X113973Y90096D01*
X113549Y90093D01*
Y88051D01*
X112549D01*
Y89991D01*
X112269Y89935D01*
X112120Y89835D01*
X107448D01*
X106683Y91683D01*
X110600Y95600D01*
Y95945D01*
X110687Y96105D01*
X112500Y97451D01*
X113476Y97645D01*
X114302Y98198D01*
X114855Y99024D01*
X115049Y100000D01*
X114855Y100976D01*
X114639Y101298D01*
Y112994D01*
X115126Y113330D01*
X117126Y112600D01*
D02*
G37*
G36*
X138528Y78949D02*
Y77384D01*
X140551D01*
Y76384D01*
X138528D01*
Y74785D01*
X137928Y73606D01*
X136687Y72933D01*
X134714D01*
X134633Y72949D01*
X129319D01*
X129200Y74900D01*
X129200D01*
Y76900D01*
X126700D01*
Y77900D01*
X129200D01*
Y78377D01*
X129789Y78966D01*
X138511D01*
X138528Y78949D01*
D02*
G37*
G36*
X176925Y111593D02*
X177900Y111399D01*
X179406Y109725D01*
Y96126D01*
X179580Y95248D01*
X180078Y94504D01*
X183599Y90982D01*
X183513Y90326D01*
X183649Y89294D01*
X184047Y88333D01*
X184681Y87507D01*
X185461Y86908D01*
Y73704D01*
X184493Y72859D01*
X182302Y73002D01*
X181475Y73555D01*
X179649Y74300D01*
X179455Y75275D01*
X178902Y76102D01*
X178076Y76655D01*
X177100Y76849D01*
X176234Y76677D01*
X176055Y77575D01*
X175502Y78402D01*
X174676Y78955D01*
X173700Y79149D01*
X172724Y78955D01*
X171898Y78402D01*
X171345Y77575D01*
X171151Y76600D01*
X171345Y75625D01*
X171416Y75519D01*
Y72939D01*
X171410Y72933D01*
X166462D01*
X165222Y73606D01*
X164621Y74785D01*
Y79836D01*
X164468Y80610D01*
X164383Y80737D01*
Y95431D01*
X165000Y97251D01*
X165975Y97445D01*
X166802Y97998D01*
X167355Y98825D01*
X167549Y99800D01*
X167355Y100776D01*
X166802Y101602D01*
X165975Y102155D01*
X165000Y102349D01*
X164024Y102155D01*
X163198Y101602D01*
X162645Y100776D01*
X162451Y99800D01*
X162455Y99779D01*
X161337Y98660D01*
X160950Y98081D01*
X160814Y97398D01*
Y93038D01*
X158814Y92209D01*
X154012Y97012D01*
X153433Y97399D01*
X152750Y97534D01*
X144665D01*
X144058Y99534D01*
X144302Y99698D01*
X144855Y100524D01*
X144966Y101082D01*
X146045Y102161D01*
X150993D01*
X151342Y101928D01*
X152200Y101757D01*
X157800D01*
X158658Y101928D01*
X159386Y102414D01*
X159872Y103142D01*
X160043Y104000D01*
X159872Y104858D01*
X159568Y105313D01*
X159386Y105637D01*
Y107363D01*
X159568Y107687D01*
X159872Y108142D01*
X159944Y108500D01*
X155000D01*
Y109500D01*
X159944D01*
X159872Y109858D01*
X159804Y109961D01*
X160626Y111893D01*
X160690Y111961D01*
X176374D01*
X176925Y111593D01*
D02*
G37*
G36*
X196600Y68822D02*
Y33611D01*
X196211Y33296D01*
X194202Y32702D01*
X193376Y33255D01*
X192900Y33349D01*
Y30900D01*
Y28451D01*
X193376Y28545D01*
X194202Y29098D01*
X196211Y28504D01*
X196600Y28189D01*
Y1300D01*
X196352Y700D01*
X176586D01*
X175672Y2700D01*
X175755Y2825D01*
X175849Y3300D01*
X173400D01*
Y3800D01*
X172900D01*
Y6250D01*
X172424Y6155D01*
X171598Y5602D01*
X169724Y5699D01*
X169180Y6416D01*
X168702Y7584D01*
X168910Y8086D01*
X169030Y9000D01*
X168910Y9914D01*
X168557Y10765D01*
X167996Y11496D01*
X167265Y12057D01*
X166414Y12410D01*
X165500Y12530D01*
X164586Y12410D01*
X163735Y12057D01*
X163004Y11496D01*
X162443Y10765D01*
X162349Y10539D01*
X120363D01*
X120091Y11047D01*
X121289Y13047D01*
X127205D01*
X127205Y13047D01*
X129133Y13547D01*
X130094Y13149D01*
X131126Y13013D01*
X132158Y13149D01*
X133119Y13547D01*
X133840Y14100D01*
X133992Y14181D01*
X136134D01*
X136286Y14100D01*
X137007Y13547D01*
X137968Y13149D01*
X139000Y13013D01*
X140032Y13149D01*
X140993Y13547D01*
X141714Y14100D01*
X141866Y14181D01*
X144008D01*
X144160Y14100D01*
X144881Y13547D01*
X145842Y13149D01*
X146874Y13013D01*
X147906Y13149D01*
X148867Y13547D01*
X149693Y14181D01*
X150327Y15007D01*
X150725Y15968D01*
X150861Y17000D01*
X150725Y18032D01*
X150327Y18993D01*
X149693Y19819D01*
X148867Y20453D01*
X148658Y20539D01*
Y26135D01*
X151262Y28738D01*
X151262Y28738D01*
X151648Y29317D01*
X151784Y30000D01*
X151784Y30000D01*
Y31410D01*
X153784Y32238D01*
X161284Y24738D01*
X161284Y24738D01*
X161863Y24351D01*
X162546Y24216D01*
X162546Y24216D01*
X167685D01*
X167698Y24198D01*
X168525Y23645D01*
X168951Y23310D01*
X169868Y21856D01*
X169950Y21501D01*
X169758Y20701D01*
X169624Y19000D01*
X169758Y17299D01*
X170156Y15639D01*
X170809Y14062D01*
X171701Y12607D01*
X172810Y11310D01*
X174107Y10201D01*
X175562Y9309D01*
X177139Y8656D01*
X178799Y8258D01*
X180500Y8124D01*
X182201Y8258D01*
X183861Y8656D01*
X185438Y9309D01*
X186893Y10201D01*
X188190Y11310D01*
X189299Y12607D01*
X190191Y14062D01*
X190844Y15639D01*
X191242Y17299D01*
X191376Y19000D01*
X191242Y20701D01*
X190844Y22361D01*
X190191Y23938D01*
X189299Y25393D01*
X188190Y26691D01*
X187991Y26861D01*
X188729Y28861D01*
X190952D01*
X191425Y28545D01*
X191900Y28451D01*
Y30900D01*
Y33349D01*
X191862Y33342D01*
X190424Y34127D01*
X189862Y34616D01*
Y39953D01*
X183138D01*
Y39953D01*
X181862D01*
Y39953D01*
X177321D01*
X176545Y40729D01*
X177107Y42996D01*
X177273Y43047D01*
X181862D01*
Y43047D01*
X183138D01*
Y43047D01*
X186000D01*
Y47000D01*
X186500D01*
Y47500D01*
X189862D01*
Y50953D01*
X189508D01*
Y64500D01*
X189500Y64539D01*
Y64616D01*
X194242Y69358D01*
X194242Y69358D01*
X194600Y69894D01*
X194746Y69915D01*
X196600Y68822D01*
D02*
G37*
G36*
X125933Y42024D02*
X126892Y41540D01*
X126907Y41503D01*
X127383Y40883D01*
X128003Y40407D01*
X128725Y40108D01*
X129500Y40006D01*
X130275Y40108D01*
X130997Y40407D01*
X131219Y40578D01*
X131776Y40883D01*
X133224D01*
X133781Y40578D01*
X134003Y40407D01*
X134725Y40108D01*
X135500Y40006D01*
X136275Y40108D01*
X136528Y40213D01*
X136925Y40180D01*
X138044Y39702D01*
X138660Y39288D01*
X138724Y39211D01*
X138767Y39146D01*
Y35038D01*
X124681Y20953D01*
X119299D01*
Y20953D01*
X117539Y21532D01*
Y23560D01*
X118057Y24235D01*
X118410Y25086D01*
X118530Y26000D01*
X118410Y26914D01*
X118057Y27765D01*
X117496Y28496D01*
X116765Y29057D01*
X115914Y29410D01*
X115000Y29530D01*
X114086Y29410D01*
X113235Y29057D01*
X112504Y28496D01*
X111943Y27765D01*
X111590Y26914D01*
X111470Y26000D01*
X111590Y25086D01*
X111943Y24235D01*
X112504Y23504D01*
X113235Y22943D01*
X113461Y22849D01*
Y11500D01*
X113616Y10720D01*
X114058Y10058D01*
X116532Y7584D01*
X115788Y5584D01*
X92039D01*
X87302Y10321D01*
X88019Y12432D01*
X89037Y12566D01*
X90864Y10738D01*
X90864Y10738D01*
X91443Y10351D01*
X92126Y10216D01*
X92126Y10216D01*
X100235D01*
X100918Y10351D01*
X101497Y10738D01*
X105662Y14903D01*
X106049Y15482D01*
X106184Y16164D01*
Y20835D01*
X106184Y20835D01*
X106049Y21518D01*
X105662Y22097D01*
X105662Y22097D01*
X105151Y22608D01*
X105106Y22752D01*
X105402Y24998D01*
X105955Y25824D01*
X106050Y26300D01*
X103600D01*
Y27300D01*
X106050D01*
X105955Y27775D01*
X105402Y28602D01*
X104576Y29155D01*
X104018Y29266D01*
X101075Y32209D01*
Y32800D01*
X98500D01*
Y33800D01*
X101075D01*
Y36200D01*
X100539D01*
Y41244D01*
X101041Y41616D01*
X102539Y42130D01*
X102842Y41928D01*
X103700Y41757D01*
X109300D01*
X110158Y41928D01*
X110215Y41966D01*
X123750D01*
X124433Y42101D01*
X124593Y42208D01*
X125183Y42213D01*
X125933Y42024D01*
D02*
G37*
G36*
X69000Y55000D02*
X69000Y30700D01*
X56900Y30700D01*
X56900Y58200D01*
X63500Y64800D01*
X78800D01*
X69000Y55000D01*
D02*
G37*
G36*
X64500Y126100D02*
X59100Y120700D01*
X59100Y72100D01*
X53500Y66500D01*
Y30700D01*
X42400Y30700D01*
Y58400D01*
X36600Y64200D01*
Y64400D01*
X8400Y64400D01*
Y78600D01*
X45400D01*
X50800Y84000D01*
Y126200D01*
X64500D01*
Y126100D01*
D02*
G37*
G36*
X7355Y66513D02*
X7380D01*
Y64400D01*
X7458Y64010D01*
X7679Y63679D01*
X8010Y63458D01*
X8400Y63380D01*
X35978Y63380D01*
X41380Y57978D01*
Y30700D01*
X41458Y30310D01*
X41679Y29979D01*
X42010Y29758D01*
X42400Y29680D01*
X52942Y29680D01*
X53500Y29680D01*
X53500Y29680D01*
X53890Y29758D01*
X54038Y29857D01*
X54556Y29979D01*
X55844D01*
X56362Y29857D01*
X56510Y29758D01*
X56900Y29680D01*
X56900Y29680D01*
X57458Y29680D01*
X67200Y29680D01*
X67493Y29400D01*
X69516D01*
Y23800D01*
X69652Y23117D01*
X70038Y22538D01*
X72077Y20500D01*
X75000D01*
Y20000D01*
X75500D01*
Y17077D01*
X89877Y2700D01*
X89799Y2020D01*
X89190Y700D01*
X-300D01*
X-300Y21900D01*
X-300Y29400D01*
X-4D01*
X-110Y77184D01*
X1302Y78600D01*
X7355D01*
Y66513D01*
D02*
G37*
%LPC*%
G36*
X38500Y188953D02*
X35047D01*
Y185500D01*
X38500D01*
Y188953D01*
D02*
G37*
G36*
X179021Y156671D02*
Y154721D01*
X180971D01*
X180876Y155197D01*
X180324Y156024D01*
X179497Y156576D01*
X179021Y156671D01*
D02*
G37*
G36*
X180971Y153721D02*
X179021D01*
Y151772D01*
X179497Y151866D01*
X180324Y152419D01*
X180876Y153246D01*
X180971Y153721D01*
D02*
G37*
G36*
X114849Y124600D02*
X112900D01*
Y122651D01*
X113375Y122745D01*
X114202Y123298D01*
X114755Y124125D01*
X114849Y124600D01*
D02*
G37*
G36*
X189862Y46500D02*
X187000D01*
Y43047D01*
X189862D01*
Y46500D01*
D02*
G37*
G36*
X173900Y6250D02*
Y4300D01*
X175849D01*
X175755Y4775D01*
X175202Y5602D01*
X174375Y6155D01*
X173900Y6250D01*
D02*
G37*
G36*
X74500Y19500D02*
X72550D01*
X72645Y19025D01*
X73198Y18198D01*
X74024Y17645D01*
X74500Y17550D01*
Y19500D01*
D02*
G37*
G36*
X32700Y57650D02*
X7700D01*
Y31150D01*
X15459D01*
X15856Y29150D01*
X14747Y28691D01*
X13292Y27799D01*
X12825Y27400D01*
D01*
X11994Y26691D01*
X10886Y25393D01*
X9994Y23938D01*
X9341Y22361D01*
X8943Y20701D01*
X8809Y19000D01*
X8943Y17299D01*
X9341Y15639D01*
X9994Y14062D01*
X10886Y12607D01*
X11994Y11310D01*
X13292Y10201D01*
X14747Y9309D01*
X16324Y8656D01*
X17984Y8258D01*
X19685Y8124D01*
X21386Y8258D01*
X23046Y8656D01*
X24623Y9309D01*
X26078Y10201D01*
X27376Y11310D01*
X28484Y12607D01*
X29376Y14062D01*
X30029Y15639D01*
X30427Y17299D01*
X30561Y19000D01*
X30427Y20701D01*
X30029Y22361D01*
X29376Y23938D01*
X28484Y25393D01*
X27376Y26691D01*
X26545Y27400D01*
X26078Y27799D01*
X24623Y28691D01*
X23514Y29150D01*
X23911Y31150D01*
X32700D01*
Y57650D01*
D02*
G37*
%LPD*%
D15*
X196850Y-100D02*
Y196750D01*
X0Y-100D02*
X196850Y-100D01*
X0D02*
Y196750D01*
Y196750D02*
X196850Y196750D01*
D16*
X142500Y165000D02*
Y166500D01*
X133496Y174500D02*
X136500Y171496D01*
X148500Y153500D02*
X150100Y155100D01*
X141100Y153500D02*
X146000D01*
X187876Y114324D02*
X192800Y109400D01*
X187469Y47969D02*
Y64500D01*
X192253Y31047D02*
X192400Y30900D01*
X174600D02*
X192400D01*
X77432Y148093D02*
X86363Y139163D01*
X86800Y131200D02*
X89500Y128500D01*
X86800Y131200D02*
Y139600D01*
X86363Y139163D02*
X86800Y139600D01*
X149400Y133600D02*
X155300D01*
X146800Y131000D02*
X149400Y133600D01*
X116100Y131000D02*
X146800D01*
X155300Y132772D02*
Y133600D01*
X84000Y176600D02*
X88700Y181300D01*
X55274Y176600D02*
X84000D01*
X46874Y185000D02*
X55274Y176600D01*
X112400Y127300D02*
X116100Y131000D01*
X112400Y125100D02*
Y127300D01*
X120590Y70910D02*
X134633D01*
X184700Y126600D02*
X185000Y126900D01*
X178600Y126600D02*
X184700D01*
X167295Y154221D02*
X178521D01*
X87900Y44000D02*
X92300Y39600D01*
X84500Y44000D02*
X87900D01*
X98500Y31900D02*
X103600Y26800D01*
X98500Y31900D02*
Y33300D01*
X143300Y134000D02*
X148950Y139650D01*
X117500Y134000D02*
X143300D01*
X115000Y136500D02*
X117500Y134000D01*
X192800Y70800D02*
Y109400D01*
X161472Y126600D02*
X178600D01*
X155300Y132772D02*
X161472Y126600D01*
X177648Y114000D02*
X177700Y113948D01*
X155000Y114000D02*
X177648D01*
X151000Y147000D02*
X152500D01*
X154100Y148600D01*
X149000Y177500D02*
X163900D01*
X133390Y147000D02*
Y153000D01*
X115500Y11500D02*
Y26000D01*
X101400Y178100D02*
Y179900D01*
X113760Y170760D02*
X117764D01*
X112500Y169500D02*
X113760Y170760D01*
X112500Y163000D02*
Y169500D01*
X112600Y100100D02*
Y115100D01*
X121700Y124200D01*
X39000Y172000D02*
Y185000D01*
X150689Y166200D02*
X157800D01*
X140000Y108000D02*
Y119325D01*
X136000Y104000D02*
X140000Y108000D01*
X135126Y124200D02*
X140000Y119325D01*
X121700Y124200D02*
X135126D01*
X98500Y33300D02*
Y44500D01*
X92300Y35500D02*
Y39600D01*
X145200Y104200D02*
X151300D01*
X142500Y101500D02*
X145200Y104200D01*
X112500Y100000D02*
X112600Y100100D01*
X163000Y185700D02*
X163900Y184800D01*
Y177500D02*
Y184800D01*
X154100Y148600D02*
X158000D01*
X150429Y166460D02*
X150689Y166200D01*
X149000Y177500D02*
Y183000D01*
X101400Y178100D02*
X105000Y174500D01*
X186500Y64500D02*
X192800Y70800D01*
X84500Y77801D02*
X87901Y74400D01*
X97100D01*
X99000Y76300D01*
Y77801D01*
X104301Y72500D01*
X111000D01*
X186500Y47000D02*
X187469Y47969D01*
X149000Y167889D02*
X150429Y166460D01*
X149000Y167889D02*
Y177500D01*
X136500Y177799D02*
X143000D01*
Y183000D01*
X72000Y180000D02*
X73000Y181000D01*
X59748Y180000D02*
X72000D01*
X54748Y185000D02*
X59748Y180000D01*
X136500Y171496D02*
Y171500D01*
X128000Y174500D02*
X133496D01*
X105000D02*
X107000D01*
X108500Y180799D02*
X110201D01*
X112760Y178240D01*
X117764D01*
X117110Y149000D02*
Y154890D01*
X112500Y159500D02*
X117110Y154890D01*
X112500Y159500D02*
Y163000D01*
X132000D02*
Y168500D01*
X129740Y170760D02*
X132000Y168500D01*
X128000Y170760D02*
X129740D01*
X118500Y163000D02*
X125701D01*
X119100Y72400D02*
X120590Y70910D01*
X111100Y72400D02*
X119100D01*
X111000Y72500D02*
X111100Y72400D01*
X47407Y150093D02*
Y166907D01*
Y150093D02*
X49407Y148093D01*
X57706D01*
X47407Y166907D02*
X48000Y167500D01*
X57706Y148093D02*
X77432D01*
X115500Y11500D02*
X118500Y8500D01*
X165000D02*
X165500Y9000D01*
X166500D01*
X167000Y42000D02*
X169000Y44000D01*
X167000Y40000D02*
Y42000D01*
X133000Y109000D02*
Y114000D01*
X125470Y174500D02*
X128000D01*
X180500Y64500D02*
X187500Y71500D01*
X115000Y26000D02*
X115500D01*
X98500Y44500D02*
X103000Y49000D01*
X106500D01*
X118500Y8500D02*
X165000D01*
X187500Y71500D02*
Y90326D01*
X118500Y47000D02*
Y52000D01*
X116500Y54000D02*
X118500Y52000D01*
X114500Y54000D02*
X116500D01*
X173000Y40000D02*
Y47500D01*
X171637Y48863D02*
X173000Y47500D01*
X168517Y48863D02*
X171637D01*
X173000Y32500D02*
Y34000D01*
Y32500D02*
X174600Y30900D01*
X159449Y43000D02*
X162598D01*
X186500Y64500D02*
X187469D01*
X115000Y68500D02*
X115100Y68400D01*
Y62500D02*
Y68400D01*
X113500Y49000D02*
X114500Y48000D01*
X106500Y49000D02*
X113500D01*
X106500Y54000D02*
X114500D01*
X146000Y153500D02*
X148500D01*
X110500Y174500D02*
X117764D01*
X165000Y34000D02*
X167000D01*
X162598Y36402D02*
X165000Y34000D01*
X162598Y36402D02*
Y43000D01*
X167000Y34000D02*
X173000D01*
X167000Y40000D02*
X173000D01*
X177000Y36000D01*
X178500D01*
X186500D01*
X126000Y115500D02*
X129500Y119000D01*
X133000D01*
X155000Y109000D02*
Y114000D01*
X176961Y61461D02*
X180000Y64500D01*
X168517Y61461D02*
X176961D01*
X141500Y166500D02*
X142500D01*
X136059Y178240D02*
X136500Y177799D01*
X128000Y178240D02*
X136059D01*
D20*
X73400Y147313D02*
Y148887D01*
X72613Y148100D02*
X74187D01*
D63*
X183500Y59000D02*
D03*
X135500Y43000D02*
D03*
X129500D02*
D03*
D64*
X43500Y68800D02*
D03*
X71059D02*
D03*
D65*
X67500Y92000D02*
D03*
X54000D02*
D03*
D66*
X143000Y177500D02*
D03*
X149000D02*
D03*
X187000Y53500D02*
D03*
X181000D02*
D03*
X121100Y62500D02*
D03*
X115100D02*
D03*
X149000Y183000D02*
D03*
X143000D02*
D03*
X185000Y126900D02*
D03*
X191000D02*
D03*
X187000Y64500D02*
D03*
X181000D02*
D03*
X126000Y107000D02*
D03*
X120000D02*
D03*
X118500Y163000D02*
D03*
X112500D02*
D03*
D67*
X155300Y139600D02*
D03*
Y133600D02*
D03*
X92700Y78800D02*
D03*
Y84800D02*
D03*
X145900Y148000D02*
D03*
X146000Y153500D02*
D03*
X163900Y177500D02*
D03*
Y171500D02*
D03*
X106500Y78801D02*
D03*
Y84801D02*
D03*
X126700Y71400D02*
D03*
Y77400D02*
D03*
X157000Y177100D02*
D03*
X156900Y171600D02*
D03*
X141000Y148000D02*
D03*
X141100Y153500D02*
D03*
X173000Y34000D02*
D03*
Y40000D02*
D03*
X167000D02*
D03*
Y34000D02*
D03*
X114500Y54000D02*
D03*
Y48000D02*
D03*
D68*
X86500Y160000D02*
D03*
X100000D02*
D03*
D69*
X101000Y147500D02*
D03*
X87500D02*
D03*
D70*
X152000Y148400D02*
D03*
Y158400D02*
D03*
D71*
X150429Y166460D02*
D03*
X141429D02*
D03*
X67000Y167500D02*
D03*
X58000D02*
D03*
X97430Y118960D02*
D03*
X106430D02*
D03*
X48000Y167500D02*
D03*
X39000D02*
D03*
X96500Y130000D02*
D03*
X87500D02*
D03*
D72*
X73400Y155958D02*
D03*
Y140242D02*
D03*
D73*
X20200Y44400D02*
D03*
D74*
X11355Y73013D02*
D03*
D75*
X29155Y72913D02*
D03*
D76*
X79000Y121374D02*
D03*
Y105626D02*
D03*
D77*
X130890Y149000D02*
D03*
X117110D02*
D03*
D78*
X126000Y115500D02*
D03*
X119701D02*
D03*
X88200Y182100D02*
D03*
X94499D02*
D03*
X73000D02*
D03*
X79299D02*
D03*
X132000Y163000D02*
D03*
X125701D02*
D03*
X92201Y33300D02*
D03*
X98500D02*
D03*
X92701Y69000D02*
D03*
X99000D02*
D03*
X121299Y68500D02*
D03*
X115000D02*
D03*
D79*
X178500Y36000D02*
D03*
Y47000D02*
D03*
X186500D02*
D03*
Y36000D02*
D03*
D80*
X57706Y154786D02*
D03*
Y134707D02*
D03*
Y148093D02*
D03*
Y128014D02*
D03*
Y141400D02*
D03*
D81*
X23000Y141000D02*
D03*
D82*
X32116Y133526D02*
D03*
Y125652D02*
D03*
X24242Y133526D02*
D03*
Y125652D02*
D03*
X16368D02*
D03*
Y133526D02*
D03*
X8494D02*
D03*
Y125652D02*
D03*
X32116Y141400D02*
D03*
Y149274D02*
D03*
Y157148D02*
D03*
X24242Y149274D02*
D03*
Y157148D02*
D03*
X16368Y141400D02*
D03*
Y149274D02*
D03*
Y157148D02*
D03*
X8494Y141400D02*
D03*
Y149274D02*
D03*
Y157148D02*
D03*
X187500Y90326D02*
D03*
Y98200D02*
D03*
Y106074D02*
D03*
X95000Y17000D02*
D03*
X131126D02*
D03*
X139000D02*
D03*
X146874D02*
D03*
X46874Y185000D02*
D03*
X54748D02*
D03*
X62622D02*
D03*
D83*
X167295Y154221D02*
D03*
Y136111D02*
D03*
D84*
Y145166D02*
D03*
D85*
X191705Y145166D02*
D03*
D86*
X128000Y170760D02*
D03*
D87*
Y174500D02*
D03*
Y178240D02*
D03*
X117764Y170760D02*
D03*
Y174500D02*
D03*
Y178240D02*
D03*
D88*
X162598Y43000D02*
D03*
X159449D02*
D03*
X156299D02*
D03*
X153150D02*
D03*
X150000D02*
D03*
X146850D02*
D03*
X143701D02*
D03*
X140551D02*
D03*
Y76884D02*
D03*
X143701D02*
D03*
X146850D02*
D03*
X150000D02*
D03*
X153150D02*
D03*
X156299D02*
D03*
X159449D02*
D03*
X162598D02*
D03*
D89*
X134633Y48863D02*
D03*
Y52013D02*
D03*
Y55162D02*
D03*
Y58312D02*
D03*
Y61461D02*
D03*
Y64611D02*
D03*
Y67761D02*
D03*
Y70910D02*
D03*
X168517Y70910D02*
D03*
Y67761D02*
D03*
Y64611D02*
D03*
Y61461D02*
D03*
Y58312D02*
D03*
Y55162D02*
D03*
Y52013D02*
D03*
Y48863D02*
D03*
D90*
X133000Y119000D02*
D03*
Y114000D02*
D03*
Y109000D02*
D03*
Y104000D02*
D03*
X155000Y119000D02*
D03*
Y109000D02*
D03*
Y104000D02*
D03*
Y114000D02*
D03*
X84500Y49000D02*
D03*
Y54000D02*
D03*
X106500D02*
D03*
Y44000D02*
D03*
Y49000D02*
D03*
Y59000D02*
D03*
X84500Y44000D02*
D03*
Y59000D02*
D03*
D91*
X108500Y180799D02*
D03*
Y174500D02*
D03*
X136500Y177799D02*
D03*
Y171500D02*
D03*
X99000Y77801D02*
D03*
Y84100D02*
D03*
X84500Y77801D02*
D03*
Y84100D02*
D03*
D92*
X97000Y106500D02*
D03*
X107000D02*
D03*
X95700Y138500D02*
D03*
X85700D02*
D03*
D93*
X136500Y171496D02*
X140104D01*
X141429Y166460D02*
Y170170D01*
X140104Y171496D02*
X141429Y170170D01*
X157300Y171500D02*
X163900D01*
X53486Y128014D02*
X54000Y127500D01*
X53486Y128014D02*
X57706D01*
D94*
X126100Y77800D02*
X129050Y80750D01*
X71300Y23800D02*
X91300Y3800D01*
X71300Y52772D02*
X80750Y62222D01*
Y76425D01*
X79900Y77275D02*
Y85449D01*
Y77275D02*
X80750Y76425D01*
X79900Y85449D02*
X81875Y87425D01*
X79400Y182900D02*
X80000Y182299D01*
X79965Y53800D02*
X81100D01*
X75000Y48836D02*
X79965Y53800D01*
X75000Y36665D02*
Y48836D01*
X77500Y47800D02*
X78700Y49000D01*
X77500Y37700D02*
Y47800D01*
X78700Y49000D02*
X84500D01*
X92701Y66350D02*
X94600Y64451D01*
Y55300D02*
Y64451D01*
X92701Y66350D02*
Y69000D01*
X91800Y52500D02*
X94600Y55300D01*
X88700Y52500D02*
X91800D01*
X87700Y53500D02*
X88700Y52500D01*
X99000Y66350D02*
Y69000D01*
X97100Y64451D02*
X99000Y66350D01*
X97100Y54264D02*
Y64451D01*
X92836Y50000D02*
X97100Y54264D01*
X88800Y50000D02*
X92836D01*
X87700Y48900D02*
X88800Y50000D01*
X75000Y36665D02*
X85065Y26600D01*
X77500Y37700D02*
X86100Y29100D01*
X96135D01*
X104400Y20835D01*
X85065Y26600D02*
X95100D01*
X101900Y19800D01*
X104400Y16164D02*
Y20835D01*
X100235Y12000D02*
X104400Y16164D01*
X101900Y17200D02*
Y19800D01*
X99200Y14500D02*
X101900Y17200D01*
X92126Y12000D02*
X100235D01*
X87126Y17000D02*
X92126Y12000D01*
X97500Y14500D02*
X99200D01*
X95000Y17000D02*
X97500Y14500D01*
X71300Y23800D02*
Y52772D01*
X91300Y3800D02*
X173400D01*
X173700D01*
X79600Y183100D02*
Y187800D01*
X79400Y182900D02*
X79600Y183100D01*
X122450Y95750D02*
X152750D01*
X129300Y100700D02*
X136850D01*
X126000Y104000D02*
X129300Y100700D01*
X136850D02*
X144550Y108400D01*
X94800Y182401D02*
Y187400D01*
X121550Y85750D02*
X144250D01*
X117200Y90100D02*
X121550Y85750D01*
X120000Y98200D02*
Y107000D01*
Y98200D02*
X122450Y95750D01*
X119701Y107299D02*
Y115500D01*
X123000Y111500D02*
X127949D01*
X130449Y114000D01*
X173200Y72200D02*
Y77104D01*
X177100Y71100D02*
Y74300D01*
X180500Y70429D02*
Y71200D01*
X154400Y108400D02*
X155000Y109000D01*
X144550Y108400D02*
X154400D01*
X173761Y67761D02*
X177100Y71100D01*
X174682Y64611D02*
X180500Y70429D01*
X171910Y70910D02*
X173200Y72200D01*
X162598Y97398D02*
X165000Y99800D01*
X152750Y95750D02*
X159449Y89051D01*
X94499Y182100D02*
X94800Y182401D01*
X81875Y87425D02*
X87611D01*
X90236Y84800D01*
X92700D01*
X119701Y107299D02*
X120000Y107000D01*
X113900Y80500D02*
X117000Y77400D01*
X126700D01*
X104275Y88051D02*
X113049D01*
X103974Y87750D02*
X104275Y88051D01*
X95350Y87750D02*
X103974D01*
X92700Y85100D02*
X95350Y87750D01*
X92700Y84800D02*
Y85100D01*
X87400Y84100D02*
X92700Y78800D01*
X84500Y84100D02*
X87400D01*
X106500Y78801D02*
X110949Y83250D01*
X105799Y84100D02*
X106500Y84801D01*
X99000Y84100D02*
X105799D01*
X129050Y80750D02*
X139250D01*
X110949Y83250D02*
X142215D01*
X132096Y89000D02*
X146500D01*
X126446Y46446D02*
Y51031D01*
X123750Y43750D02*
X126446Y46446D01*
X106750Y43750D02*
X123750D01*
X128946Y44446D02*
Y49995D01*
X130963Y52013D01*
X146850Y76884D02*
Y83150D01*
X144250Y85750D02*
X146850Y83150D01*
X139250Y80750D02*
X140551Y79449D01*
X142215Y83250D02*
X143701Y81764D01*
X146500Y89000D02*
X150250Y85250D01*
X128250Y92750D02*
X148250D01*
X128000Y92500D02*
X128250Y92750D01*
X130449Y114000D02*
X133000D01*
X126000Y104000D02*
Y107000D01*
X140551Y34299D02*
Y43000D01*
X143701Y33701D02*
Y43000D01*
X123252Y17000D02*
X140551Y34299D01*
X131126Y21126D02*
X143701Y33701D01*
X140551Y76884D02*
Y79449D01*
X148250Y92750D02*
X153150Y87850D01*
X143701Y76884D02*
Y81764D01*
X162546Y26000D02*
X169500D01*
X153150Y35396D02*
X162546Y26000D01*
X163000Y30000D02*
X167404D01*
X156299Y36701D02*
X163000Y30000D01*
X106500Y44000D02*
X106750Y43750D01*
X130577Y55162D02*
X134633D01*
X130963Y52013D02*
X134633D01*
X126446Y51031D02*
X130577Y55162D01*
X120500Y69299D02*
X121299Y68500D01*
X119701Y115500D02*
X119750Y115451D01*
X159449Y76884D02*
Y89051D01*
X150250Y77134D02*
Y85250D01*
X150000Y76884D02*
X150250Y77134D01*
X149500Y67500D02*
X151500D01*
X122000Y63000D02*
X123539Y61461D01*
X134633D01*
X162598Y76884D02*
Y97398D01*
X168705Y58500D02*
X183000D01*
X168517Y58312D02*
X168705Y58500D01*
X180500Y53500D02*
X183500Y56500D01*
Y59000D01*
X168517Y70910D02*
X171910D01*
X146874Y17000D02*
Y26874D01*
X150000Y30000D01*
Y43000D01*
X139000Y17000D02*
Y25000D01*
X146850Y32850D01*
Y43000D01*
X131126Y17000D02*
Y21126D01*
X168517Y67761D02*
X173761D01*
X156299Y36701D02*
Y43000D01*
X153150Y35396D02*
Y43000D01*
X151500Y67500D02*
X156299Y72299D01*
Y76884D01*
X153150D02*
Y87850D01*
X107188Y58312D02*
X134633D01*
X106500Y59000D02*
X107188Y58312D01*
X168517Y64611D02*
X174682D01*
X134633Y48863D02*
X135500Y47996D01*
Y43000D02*
Y47996D01*
X128500Y43000D02*
X129500D01*
X180500Y64500D02*
X181000D01*
X174987Y52013D02*
X178500Y48500D01*
X168517Y52013D02*
X174987D01*
D95*
X106430Y118960D02*
X107500Y120030D01*
Y163829D01*
X100329Y171000D02*
X107500Y163829D01*
X93500Y165500D02*
X94500D01*
X191705Y145166D02*
X191705Y145166D01*
X167295Y145166D02*
X191705D01*
X75000Y161000D02*
X75600D01*
X74000Y162000D02*
X75000Y161000D01*
X75100Y171000D02*
X100329D01*
X100000Y158500D02*
X101500Y160000D01*
X39000Y167500D02*
Y172000D01*
X86500Y160000D02*
Y165000D01*
X94500Y165500D02*
X100000Y160000D01*
X97000Y118530D02*
X97430Y118960D01*
X58000Y167500D02*
Y172000D01*
X57706Y154786D02*
X58000Y155079D01*
Y167500D01*
X73500Y161500D02*
X74000Y162000D01*
X86500Y148500D02*
X87500Y147500D01*
X86500Y148500D02*
Y160000D01*
X5500Y122658D02*
X8494Y125652D01*
X71419Y134707D02*
X73126Y133000D01*
X57706Y134707D02*
X71419D01*
X32116Y141400D02*
X57706D01*
Y154786D02*
X62286D01*
D96*
X181700Y96126D02*
X187500Y90326D01*
X181700Y96126D02*
Y117236D01*
X183615Y119151D01*
X183751D01*
X191000Y126400D01*
Y126900D01*
X191705Y127605D01*
Y145166D01*
X144500Y116179D02*
X154321Y126000D01*
X155000D01*
X144500Y112000D02*
Y116179D01*
D97*
X73126Y133000D02*
Y139968D01*
Y124500D02*
Y133000D01*
Y139968D02*
X73400Y140242D01*
D98*
X71100Y67600D02*
D03*
D99*
X167700Y133750D02*
D03*
D100*
X141500Y148500D02*
D03*
D101*
X70750Y165750D02*
D03*
D102*
X39000Y108591D02*
D03*
D103*
Y93000D02*
D03*
X63500Y37000D02*
D03*
D104*
X187500Y113948D02*
D03*
D105*
X87126Y17000D02*
D03*
X123252D02*
D03*
X39000Y185000D02*
D03*
D106*
X180500Y19000D02*
D03*
X19685Y177065D02*
D03*
X180500D02*
D03*
X19685Y19000D02*
D03*
D107*
X47909Y37000D02*
D03*
D108*
X192400Y30900D02*
D03*
X112400Y125100D02*
D03*
X178521Y154221D02*
D03*
X75000Y20000D02*
D03*
X103600Y26800D02*
D03*
X79600Y187800D02*
D03*
X178600Y126600D02*
D03*
X177900Y113948D02*
D03*
X94800Y187400D02*
D03*
X101400Y179900D02*
D03*
X117200Y90100D02*
D03*
X123000Y111500D02*
D03*
X173700Y76600D02*
D03*
X177100Y74300D02*
D03*
X180500Y71200D02*
D03*
X157800Y166200D02*
D03*
X165000Y99800D02*
D03*
X142500Y101500D02*
D03*
X173400Y3800D02*
D03*
X163000Y185700D02*
D03*
X158000Y148600D02*
D03*
X115000Y136500D02*
D03*
X132096Y89000D02*
D03*
X128000Y92500D02*
D03*
X112500Y100000D02*
D03*
X169000Y44000D02*
D03*
X169500Y26000D02*
D03*
X169000Y30000D02*
D03*
X118500Y47000D02*
D03*
X111000Y72500D02*
D03*
X149500Y67500D02*
D03*
D109*
X14800Y47600D02*
D03*
Y35600D02*
D03*
Y41600D02*
D03*
X24600Y53600D02*
D03*
Y47600D02*
D03*
Y35600D02*
D03*
X14800Y53200D02*
D03*
X24600Y41600D02*
D03*
X155000Y126000D02*
D03*
X168900Y131100D02*
D03*
X22000Y149500D02*
D03*
X14000D02*
D03*
Y156000D02*
D03*
X165500Y9000D02*
D03*
X22000Y156000D02*
D03*
X115000Y26000D02*
D03*
D110*
X86500Y166000D02*
D03*
X75500Y166100D02*
D03*
X75600Y161000D02*
D03*
X70900D02*
D03*
X144500Y112000D02*
D03*
X39000Y172000D02*
D03*
X58000D02*
D03*
X65500Y161000D02*
D03*
D111*
X93500Y165500D02*
D03*
D112*
X150300Y154900D02*
D03*
X113049Y88051D02*
D03*
X113900Y80500D02*
D03*
X142000Y155000D02*
D03*
Y162000D02*
D03*
M02*
