M48
;Layer_Color=9474304
;FILE_FORMAT=2:5
INCH,LZ
;TYPE=PLATED
T1F00S00C0.01500
T2F00S00C0.01600
T3F00S00C0.02000
T4F00S00C0.02500
T5F00S00C0.03000
T6F00S00C0.03150
T7F00S00C0.05118
T8F00S00C0.11811
%
T01
X01734Y00038
X01924Y00309
X01139Y00805
X0113049Y0088051
X0142Y0155
Y0162
X01503Y01549
X0158Y01486
X01578Y01662
X0163Y01857
T02
X01014Y01799
T03
X00148Y00356
Y00416
Y00476
Y00532
X00246Y00536
Y00476
Y00416
Y00356
X0075Y002
X01036Y00268
X01185Y0047
X0169Y0044
Y003
X01695Y0026
X01737Y00766
X01771Y00743
X01805Y00712
X01495Y00675
X0132096Y0089
X0128Y00925
X01172Y00901
X01125Y01
X0123Y01115
X01445Y0112
X01425Y01015
X0165Y00998
X01779Y0113948
X01786Y01266
X0178521Y0154221
X0115Y01365
X01124Y01251
X0111Y00725
X00948Y01874
X00796Y01878
X0022Y0156
Y01495
X0014
Y0156
T04
X00655Y0161
X00709
X00756
X00755Y01661
X00865Y0166
X00935Y01655
X0058Y0172
X0039
T05
X0115Y0026
X01655Y0009
X01689Y01311
X0155Y0126
T06
X0087126Y0017
X0095
X0123252
X0131126
X0139
X0146874
X01875Y0090326
Y00982
Y0106074
Y0113948
X0062622Y0185
X0054748
X0046874
X0039
T07
X0047909Y0037
X00635
X0039Y0093
Y0108591
T08
X0019685Y0019
X01805
Y0177065
X0019685
M30
